<?xml version="1.0" encoding="UTF-8" standalone="no"?>
<!-- Created with Inkscape (http://www.inkscape.org/) -->

<svg
   width="300"
   height="300"
   viewBox="0 0 79.374998 79.374998"
   version="1.1"
   id="svg54694"
   inkscape:version="1.1.1 (3bf5ae0d25, 2021-09-20)"
   sodipodi:docname="icon-sugar.svg"
   xmlns:inkscape="http://www.inkscape.org/namespaces/inkscape"
   xmlns:sodipodi="http://sodipodi.sourceforge.net/DTD/sodipodi-0.dtd"
   xmlns="http://www.w3.org/2000/svg"
   xmlns:svg="http://www.w3.org/2000/svg">
  <sodipodi:namedview
     id="namedview54696"
     pagecolor="#ffffff"
     bordercolor="#666666"
     borderopacity="1.0"
     inkscape:pageshadow="2"
     inkscape:pageopacity="0.0"
     inkscape:pagecheckerboard="0"
     inkscape:document-units="mm"
     showgrid="false"
     units="px"
     inkscape:zoom="2.2652217"
     inkscape:cx="114.55832"
     inkscape:cy="100.43167"
     inkscape:window-width="2560"
     inkscape:window-height="1377"
     inkscape:window-x="1072"
     inkscape:window-y="468"
     inkscape:window-maximized="1"
     inkscape:current-layer="layer1" />
  <defs
     id="defs54691" />
  <g
     inkscape:label="Layer 1"
     inkscape:groupmode="layer"
     id="layer1">
    <g
       id="g54279"
       transform="matrix(0.52252161,0,0,0.52252161,-24.769605,-56.651487)">
      <path
         style="fill:#e4e4e5;stroke-width:0.264583"
         d="m 103.78128,206.19438 c -0.0639,-22.01232 -0.0708,-22.27528 -0.59378,-22.44126 -0.46644,-0.14805 -0.52917,-0.40032 -0.52917,-2.1284 0,-1.74589 0.0652,-2.00136 0.59532,-2.3343 0.32742,-0.20563 19.16906,-11.83642 41.87031,-25.84621 22.70125,-14.00979 41.53583,-25.64056 41.85464,-25.84615 0.56358,-0.36345 0.55628,-0.2944 -0.26314,2.49063 l -0.84278,2.86443 -0.13371,47.75729 -0.1337,47.75729 -0.13232,-46.62156 -0.13233,-46.62155 -9.505,34.8476 c -5.22775,19.16617 -9.85661,36.12752 -10.28636,37.69186 -0.42974,1.56435 -0.87659,2.84428 -0.993,2.84428 -0.11641,0 -13.74369,-5.95313 -30.28286,-13.22917 -16.53917,-7.27604 -30.12024,-13.22917 -30.18017,-13.22917 -0.0599,0 -0.14009,9.97149 -0.17815,22.15886 l -0.0692,22.15885 z m 33.65551,-87.26418 c 1.1e-4,-4.65666 0.0361,-6.5244 0.08,-4.15052 0.0439,2.37388 0.0438,6.18388 -1.9e-4,8.46667 -0.044,2.28278 -0.0799,0.34052 -0.0798,-4.31615 z"
         id="path54291" />
      <path
         style="fill:#6d56a5;stroke-width:0.264583"
         d="m 106.62708,245.78023 c -3.38033,-0.36093 -8.091285,-2.17238 -8.852421,-3.40392 -0.176763,-0.28601 0.697305,-1.49364 2.139001,-2.9553 l 0.67896,-0.68836 1.36358,0.73393 c 4.22535,2.27423 11.09211,2.33059 15.30134,0.12559 2.38403,-1.24888 3.34807,-1.23288 5.97626,0.0992 3.79603,1.92399 6.52546,1.93185 10.18099,0.0293 1.39812,-0.72767 2.38626,-1.0665 3.11021,-1.0665 0.72395,0 1.71208,0.33883 3.11021,1.0665 2.40889,1.25373 4.43927,1.65563 6.61323,1.30905 0.86507,-0.13792 2.40532,-0.70262 3.57051,-1.30905 2.68101,-1.39535 3.53942,-1.39535 6.22043,0 3.65552,1.90255 6.38495,1.89469 10.18099,-0.0293 2.55894,-1.29697 3.70716,-1.34965 5.64011,-0.25877 2.20883,1.24659 4.33261,1.7078 7.7916,1.69208 3.42273,-0.0156 5.68077,-0.49275 7.84588,-1.65809 l 1.36359,-0.73393 0.67895,0.68836 c 0.37343,0.37859 1.05509,1.13827 1.51479,1.68817 0.78427,0.93813 0.80888,1.02959 0.39903,1.48247 -0.78245,0.8646 -2.94435,1.86185 -5.61387,2.58957 -2.26809,0.61829 -3.10973,0.71248 -6.32066,0.70739 -4.01267,-0.006 -6.53725,-0.4945 -8.98111,-1.7365 l -1.22148,-0.62077 -2.00429,0.97763 c -3.97781,1.94027 -8.79825,1.90108 -12.74427,-0.1036 l -1.78393,-0.90628 -0.91996,0.56947 c -3.72852,2.30802 -9.11788,2.49004 -13.30077,0.44922 l -1.98573,-0.96883 -1.74145,0.88189 c -3.90653,1.97832 -8.73975,2.00766 -12.6977,0.0771 -1.99867,-0.9749 -2.00979,-0.9769 -2.87225,-0.51733 -1.45532,0.77551 -3.93472,1.50383 -6.11047,1.79496 -2.30188,0.308 -3.60465,0.30694 -6.5293,-0.005 z m 6.87917,-17.44482 v -2.38125 h 2.38125 2.38125 v 2.38125 2.38125 h -2.38125 -2.38125 z m 7.14375,0 v -2.38125 h 2.38125 2.38125 v 2.38125 2.38125 H 123.03125 120.65 Z m 7.14375,-0.01 v -2.39118 l 2.4474,0.0761 2.44739,0.0761 0.0765,2.3151 0.0764,2.31511 h -2.52385 -2.52384 z m 7.40833,0.01 v -2.38125 h 2.38125 2.38125 v 2.38125 2.38125 h -2.38125 -2.38125 z m 7.14375,0 v -2.38125 h 2.38125 2.38125 v 2.38125 2.38125 h -2.38125 -2.38125 z m 7.14375,0 v -2.38125 h 2.38125 2.38125 v 2.38125 2.38125 h -2.38125 -2.38125 z m 7.1996,0.0661 0.0764,-2.3151 2.4474,-0.0761 2.44739,-0.0761 v 2.39118 2.39118 h -2.52384 -2.52384 z m 7.35248,-0.0661 v -2.38125 h 2.38125 2.38125 v 2.38125 2.38125 h -2.38125 -2.38125 z m 7.14375,0 v -2.38125 h 2.38125 2.38125 v 2.38125 2.38125 h -2.38125 -2.38125 z m -67.35293,-57.81146 c -1.4e-4,-3.92906 0.0367,-5.57329 0.0818,-3.65384 0.0451,1.91945 0.0453,5.13414 2.5e-4,7.14375 -0.045,2.00962 -0.0819,0.43915 -0.0821,-3.48991 z m -0.002,-17.85937 c 0,-3.41974 0.0377,-4.81873 0.0838,-3.10886 0.0461,1.70987 0.0461,4.50784 0,6.21771 -0.0461,1.70987 -0.0838,0.31089 -0.0838,-3.10885 z m 21.0034,-25.33346 c 2.37387,-0.0439 6.18387,-0.0438 8.46666,1.9e-4 2.28279,0.044 0.34053,0.0799 -4.31614,0.0798 -4.65666,-1.1e-4 -6.5244,-0.0361 -4.15052,-0.08 z m 60.75547,-9.45925 c 1.3e-4,-4.07458 0.0369,-5.70449 0.0816,-3.62201 0.0447,2.08247 0.0446,5.41622 -2.5e-4,7.40833 -0.0449,1.99211 -0.0815,0.28826 -0.0814,-3.78632 z"
         id="path54289" />
      <path
         style="fill:#563c66;stroke-width:0.264583"
         d="m 107.15625,241.03588 c -2.13972,-0.28634 -3.66594,-0.74778 -5.20389,-1.57335 l -1.36743,-0.73404 -0.587595,0.55814 c -0.703104,0.66787 -0.853308,1.12527 1.837725,-5.5962 l 2.14619,-5.36059 v -22.07138 -22.07138 l 3.9026,1.72082 c 2.14644,0.94644 4.31933,1.90899 4.82865,2.13898 0.50932,0.23 1.01534,0.39978 1.12448,0.37731 0.10914,-0.0225 0.19844,0.0852 0.19844,0.23934 0,0.1541 0.10889,0.21289 0.24198,0.13064 0.13309,-0.0823 0.28192,-0.0361 0.33073,0.10264 0.0877,0.24925 54.00175,32.30093 54.13025,32.18021 0.20222,-0.18996 13.29367,-72.06147 13.19641,-72.4477 -0.07,-0.27779 -0.005,-0.3945 0.16158,-0.29141 0.1789,0.11057 0.23043,-0.0782 0.1443,-0.5288 -0.0737,-0.38543 -0.0388,-0.70078 0.0775,-0.70078 0.1163,0 0.1975,-0.20836 0.18045,-0.46302 -0.017,-0.25466 0.61543,-2.81545 1.40551,-5.69064 l 1.4365,-5.22761 0.13229,46.6349 0.13229,46.63491 2.17972,5.27271 c 1.19884,2.9 2.14069,5.31175 2.09299,5.35944 -0.0477,0.0477 -0.28985,-0.13775 -0.53813,-0.41209 -0.44046,-0.48671 -0.48483,-0.48082 -1.82841,0.24239 -2.17838,1.17255 -4.43052,1.64977 -7.85929,1.66535 -3.45899,0.0157 -5.58277,-0.44549 -7.7916,-1.69208 -1.93295,-1.09088 -3.08117,-1.0382 -5.64011,0.25877 -3.79604,1.92399 -6.52547,1.93185 -10.18099,0.0293 -1.39813,-0.72767 -2.38626,-1.0665 -3.11022,-1.0665 -0.72395,0 -1.71208,0.33883 -3.11021,1.0665 -1.16519,0.60643 -2.70544,1.17113 -3.57051,1.30905 -2.17396,0.34658 -4.20434,-0.0553 -6.61323,-1.30905 -1.39813,-0.72767 -2.38626,-1.0665 -3.11021,-1.0665 -0.72395,0 -1.71209,0.33883 -3.11021,1.0665 -3.65553,1.90255 -6.38496,1.89469 -10.18099,-0.0293 -2.62871,-1.33233 -3.59206,-1.34816 -5.97814,-0.0982 -2.74839,1.43975 -6.31465,1.94919 -10.09941,1.44273 z m 11.1125,-12.70047 v -2.38125 h -2.38125 -2.38125 v 2.38125 2.38125 h 2.38125 2.38125 z m 7.14375,0 v -2.38125 H 123.03125 120.65 v 2.38125 2.38125 h 2.38125 2.38125 z m 7.35249,0.0661 -0.0765,-2.3151 -2.44739,-0.0761 -2.4474,-0.0761 v 2.39118 2.39118 h 2.52384 2.52385 z m 7.19959,-0.0661 v -2.38125 h -2.38125 -2.38125 v 2.38125 2.38125 h 2.38125 2.38125 z m 7.14375,0 v -2.38125 h -2.38125 -2.38125 v 2.38125 2.38125 h 2.38125 2.38125 z m 7.14375,0 v -2.38125 h -2.38125 -2.38125 v 2.38125 2.38125 h 2.38125 2.38125 z m 7.40833,-0.01 v -2.39118 l -2.44739,0.0761 -2.4474,0.0761 -0.0764,2.3151 -0.0764,2.31511 h 2.52384 2.52384 z m 7.14375,0.01 v -2.38125 h -2.38125 -2.38125 v 2.38125 2.38125 h 2.38125 2.38125 z m 7.14375,0 v -2.38125 h -2.38125 -2.38125 v 2.38125 2.38125 h 2.38125 2.38125 z m -72.13586,-67.20417 c 0,-1.38244 0.0446,-1.94799 0.0991,-1.25677 0.0545,0.69123 0.0545,1.82232 0,2.51354 -0.0545,0.69123 -0.0991,0.12568 -0.0991,-1.25677 z m 81.74555,-34.39583 c 0,-0.94588 0.048,-1.33284 0.10671,-0.85989 0.0587,0.47294 0.0587,1.24685 0,1.71979 -0.0587,0.47294 -0.10671,0.086 -0.10671,-0.8599 z"
         id="path54287" />
      <path
         style="fill:#683210;stroke-width:0.264583"
         d="m 103.98477,178.02048 c 0.003,-0.52129 1.10439,-1.29718 7.07761,-4.98583 l 7.07408,-4.36848 0.0757,-2.57684 0.0757,-2.57684 h -7.15333 -7.15333 v -2.38125 -2.38125 h 7.14375 7.14375 v -6.08541 -6.08542 h -7.14375 -7.14375 v -1.19062 -1.19063 h 8.33438 8.33437 v -8.33437 -8.33438 h 8.46667 8.46666 v -8.46666 -8.46667 h 1.19063 1.19062 v 7.27604 7.27604 h 5.95313 5.95312 v -7.27604 -7.27604 h 2.377 2.377 l 0.0704,7.2099 0.0704,7.20989 h 5.95313 5.95312 l 0.0704,-7.20989 0.0704,-7.2099 h 2.377 2.37699 v 7.27604 7.27604 h 5.95313 5.95312 l -0.005,1.65365 -0.005,1.65364 -40.49553,25.00313 c -22.27254,13.75172 -40.60584,25.04281 -40.74066,25.09132 -0.13482,0.0485 -0.24354,-0.18962 -0.2416,-0.52917 z m 21.33874,-13.77484 c 0.48551,-0.28646 0.88274,-0.5686 0.88274,-0.62699 0,-0.0584 -0.71438,-0.10616 -1.5875,-0.10616 h -1.5875 v 1.08877 1.08876 l 0.70476,-0.46178 c 0.38762,-0.25397 1.10199,-0.69615 1.5875,-0.9826 z m 9.43658,-5.82681 c 0.40719,-0.29775 0.44567,-0.90521 0.3813,-6.01927 l -0.0716,-5.68811 -6.01927,-0.0711 -6.01927,-0.0711 v 6.09038 6.09038 h 5.63797 c 4.09674,0 5.76178,-0.0905 6.09087,-0.33116 z m 11.27396,-6.97663 c 4.96158,-3.06329 5.83678,-3.69806 5.83678,-4.23334 v -0.6297 h -5.95312 -5.95313 v 4.23333 c 0,2.32834 0.0524,4.23334 0.11634,4.23334 0.064,0 2.7429,-1.62164 5.95313,-3.60363 z m -10.83197,-15.57866 v -5.95313 h -6.08541 -6.08542 v 5.95313 5.95312 h 6.08542 6.08541 z m 16.66875,0 v -5.95313 h -5.95312 -5.95313 v 5.95313 5.95312 h 5.95313 5.95312 z m 13.31929,3.77031 3.59224,-2.18281 0.0109,-3.77032 0.0109,-3.77031 h -6.08541 -6.08542 v 5.95313 5.95312 h 2.48228 2.48228 z m 12.47759,-7.72969 c 1.60072,-0.98472 2.96002,-1.83615 3.02066,-1.89207 0.0606,-0.0559 -1.51695,-0.10168 -3.50573,-0.10168 h -3.61598 v 2.27939 2.27939 l 0.59532,-0.38731 c 0.32742,-0.21303 1.905,-1.193 3.50573,-2.17772 z"
         id="path54285" />
      <path
         style="fill:#4b302a;stroke-width:0.264583"
         d="m 103.98125,170.39166 v -6.87917 h 7.15333 7.15333 l -0.0757,2.57511 -0.0757,2.5751 -6.87917,4.28595 c -3.78354,2.35728 -6.96846,4.2941 -7.0776,4.30407 -0.10914,0.01 -0.19844,-3.07752 -0.19844,-6.86106 z m 19.05,-5.7904 v -1.08877 h 1.5875 c 0.87312,0 1.5875,0.0478 1.5875,0.10616 0,0.0584 -0.39723,0.34053 -0.88274,0.62699 -0.48551,0.28645 -1.19988,0.72863 -1.5875,0.9826 l -0.70476,0.46178 z m -19.05,-11.93668 v -6.08542 h 7.14375 7.14375 v 6.08542 6.08541 h -7.14375 -7.14375 z m 19.05,-0.005 v -6.09038 l 6.01927,0.0711 6.01927,0.0711 0.0716,5.6881 c 0.0644,5.11406 0.0259,5.72152 -0.3813,6.01927 -0.32909,0.24064 -1.99413,0.33117 -6.09087,0.33117 h -5.63797 v -6.09038 z m 16.93333,-1.84711 v -4.23333 h 5.95313 5.95312 v 0.6297 c 0,0.53528 -0.8752,1.17005 -5.83678,4.23334 -3.21023,1.98199 -5.88914,3.60363 -5.95313,3.60363 -0.064,0 -0.11634,-1.905 -0.11634,-4.23334 z m -16.93333,-14.94895 v -5.95313 h 6.08542 6.08541 v 5.95313 5.95312 h -6.08541 -6.08542 z m 16.93333,0 v -5.95313 h 5.95313 5.95312 v 5.95313 5.95312 h -5.95312 -5.95313 z m 16.66875,0 v -5.95313 h 6.08542 6.08541 l -0.0109,3.77031 -0.0109,3.77032 -3.59223,2.18281 -3.59224,2.18281 h -2.48228 -2.48228 z m 16.93333,-3.67374 v -2.27939 h 3.61598 c 1.98878,0 3.56636,0.0458 3.50573,0.10168 -0.0606,0.0559 -1.41994,0.90735 -3.02066,1.89207 -1.60073,0.98472 -3.17831,1.96469 -3.50573,2.17772 l -0.59532,0.38731 z m -33.60208,-14.31793 v -7.27604 h 5.95313 5.95312 v 7.27604 7.27604 h -5.95312 -5.95313 z m 16.85007,7.10458 c -0.0997,-0.0997 -0.18132,-3.37616 -0.18132,-7.28097 v -7.09965 h 6.08967 6.08967 l -0.0704,7.2099 -0.0704,7.20989 -5.83795,0.0711 c -3.21087,0.0391 -5.91954,-0.0105 -6.01927,-0.11025 z m 16.75201,-7.10458 v -7.27604 h 5.95313 5.95312 v 7.27604 7.27604 h -5.95312 -5.95313 z"
         id="path54283" />
      <path
         style="fill:#362641;stroke-width:0.264583"
         d="m 141.62473,205.10748 c -14.87593,-8.81738 -27.01475,-16.06399 -26.97516,-16.10358 0.0396,-0.0396 11.30651,4.8717 25.0376,10.91397 15.14891,6.66618 25.03222,10.87819 25.13499,10.71189 0.0932,-0.15073 4.03096,-14.43786 8.75066,-31.74917 4.7197,-17.31131 8.61913,-31.43726 8.66539,-31.39099 0.0854,0.0854 -13.37774,73.4729 -13.49982,73.58721 -0.0366,0.0343 -12.23773,-7.15194 -27.11366,-15.96933 z"
         id="path54281" />
    </g>
    <g
       id="g54241"
       transform="matrix(0.40617868,0,0,0.40617868,-17.56915,-24.648173)">
      <path
         style="fill:#f9d28f;stroke-width:0.264583"
         d="m 113.7033,253.57034 c -6.03864,-0.51136 -8.29401,-0.76956 -11.37708,-1.30247 -16.549364,-2.86054 -30.316104,-9.57752 -39.699636,-19.36999 -5.363287,-5.59703 -8.57268,-11.3537 -10.220518,-18.33249 -0.551924,-2.33747 -0.675285,-3.63845 -0.777727,-8.20208 -0.108785,-4.84616 -0.08152,-5.33648 0.255894,-4.60276 0.939809,2.04361 3.519992,2.69437 5.299962,1.33672 0.50646,-0.3863 1.018182,-0.97033 1.13716,-1.29785 0.128295,-0.35317 0.270156,1.95476 0.348615,5.67161 l 0.132291,6.2671 0.781148,0.81473 c 0.957123,0.99826 2.357776,1.42268 3.558566,1.07829 1.061837,-0.30453 1.551204,-0.69146 2.184467,-1.72722 0.481594,-0.78769 0.485307,-0.75564 0.486288,4.19832 l 9.89e-4,4.99206 1.027206,1.02721 c 1.251754,1.25175 2.684845,1.44642 4.342307,0.58984 1.300161,-0.67193 1.772136,-1.80448 1.773248,-4.25511 l 9.89e-4,-2.17892 0.859896,0.93614 c 1.495856,1.62849 4.002753,1.61842 5.423958,-0.0218 l 0.595312,-0.68705 0.01151,4.8434 c 0.01437,6.03392 0.172775,6.9382 1.414904,8.07653 0.793713,0.72738 1.151168,0.86775 2.207707,0.86692 1.587069,-0.001 2.882008,-0.75712 3.393247,-1.98068 0.215328,-0.51531 0.380965,-1.7647 0.380965,-2.87348 v -1.96175 l 1.027205,1.02721 c 0.899774,0.89977 1.180407,1.0272 2.262098,1.0272 1.422688,0 2.632143,-0.5397 3.118998,-1.3918 0.29025,-0.50799 0.35957,-0.0261 0.48564,3.37618 0.17526,4.72954 0.54581,5.74864 2.50843,6.89882 1.02407,0.60014 1.42997,0.68739 2.75271,0.59171 2.820781,-0.20404 4.489121,-2.18978 4.514901,-5.37387 0.0127,-1.57718 0.0157,-1.58298 0.44425,-0.89238 0.61314,0.98793 1.70708,1.55384 3.0037,1.55384 1.29224,0 2.76897,-0.7977 3.0856,-1.66678 0.12936,-0.3551 0.26369,1.07686 0.34438,3.67116 0.12726,4.09139 0.16001,4.29519 0.8602,5.35258 1.9085,2.88217 6.16037,2.88229 8.0692,2.3e-4 0.71353,-1.07735 0.72964,-1.19015 0.8164,-5.71654 0.088,-4.59253 0.0911,-4.61324 0.56913,-3.8272 1.95013,3.20671 7.23548,2.75894 8.54417,-0.72387 0.082,-0.21828 0.15853,0.23998 0.17001,1.01835 0.0399,2.70386 1.44039,4.27332 3.81323,4.27332 0.98141,0 1.39573,-0.15751 2.14515,-0.81552 1.22201,-1.07293 1.46739,-2.08489 1.47036,-6.06364 l 0.002,-3.3073 0.4903,0.79375 c 0.97704,1.58177 2.27119,2.28868 4.19497,2.29145 1.49031,0.002 3.13054,-0.95181 3.93035,-2.2859 l 0.63781,-1.06388 0.002,3.77881 c 0.002,2.68532 0.11275,4.04265 0.38346,4.69056 0.51499,1.23254 1.80483,1.97944 3.42049,1.98068 1.14387,8e-4 1.40277,-0.11388 2.3151,-1.02621 l 1.02741,-1.02721 0.001,-6.18269 c 0.001,-6.13532 0.005,-6.17652 0.49194,-5.37762 0.58474,0.95888 1.55,1.63752 2.43587,1.71257 1.66785,0.14129 2.18124,-0.0248 3.18775,-1.0313 l 1.02713,-1.02721 0.001,0.96106 c 0.002,1.96731 1.69682,3.55007 3.77071,3.52144 1.2373,-0.0171 2.15575,-0.56883 2.85453,-1.71486 0.46037,-0.75502 0.51575,-1.35524 0.51752,-5.60802 l 0.002,-4.7625 0.51555,0.84552 c 0.72447,1.18817 1.7124,1.75622 3.05435,1.75622 1.34194,0 2.32988,-0.56805 3.05435,-1.75622 0.44312,-0.72674 0.51568,-1.34352 0.51653,-4.39037 l 0.001,-3.54486 0.60059,0.89902 c 0.83249,1.24616 2.16139,1.88116 3.50045,1.67265 4.13811,-0.64436 6.5969,-4.24275 7.53769,-11.03125 0.1518,-1.09535 0.20207,0.88199 0.1498,5.892 -0.0732,7.01807 -0.12542,7.73556 -0.7533,10.35361 -4.8527,20.23412 -27.33012,35.95411 -56.14669,39.2672 -3.32268,0.38202 -13.83615,0.7029 -16.27188,0.49664 z M 97.482489,185.11595 c -1.59418,-5.05733 1.30304,-10.05757 7.754151,-13.38267 11.33107,-5.84039 28.43571,-4.06591 35.87372,3.72164 2.60658,2.72908 3.62956,5.61496 3.02414,8.53127 -0.31087,1.49744 -1.22243,2.86168 -1.5567,2.32975 -0.23922,-0.38067 -2.16265,-1.14369 -2.44427,-0.96964 -0.13007,0.0804 -0.23648,0.007 -0.23648,-0.16235 0,-0.16968 -0.1709,-0.24293 -0.37978,-0.16277 -0.20888,0.0802 -0.41724,0.0369 -0.46302,-0.0962 -0.0458,-0.13306 -0.3809,-0.2752 -0.7447,-0.31586 -0.3638,-0.0407 -0.72997,-0.16641 -0.81371,-0.27941 -0.0837,-0.11301 -0.52998,-0.23207 -0.99166,-0.26459 -0.46168,-0.0325 -0.83965,-0.1623 -0.83994,-0.28841 -2.6e-4,-0.12611 -0.23853,-0.16706 -0.52943,-0.091 -0.29089,0.0761 -0.60059,0.0223 -0.68822,-0.11947 -0.0876,-0.14178 -0.32205,-0.19533 -0.52096,-0.119 -0.1989,0.0763 -0.435,0.0201 -0.52466,-0.12502 -0.0897,-0.14508 -0.38112,-0.19457 -0.64767,-0.10997 -0.26655,0.0846 -0.56009,0.0317 -0.6523,-0.11748 -0.0922,-0.14922 -0.42967,-0.27183 -0.74987,-0.27249 -0.32021,-5.2e-4 -0.93939,-0.0605 -1.37595,-0.13308 -3.75276,-0.62363 -12.77279,-0.72032 -16.93334,-0.18153 -4.83212,0.62576 -10.78234,2.18577 -14.699451,3.85386 -0.31886,0.13578 -0.51319,-0.14572 -0.8599,-1.2456 z m -27.567728,0.0949 c -0.778826,-0.3192 -3.566885,-3.33541 -3.602343,-3.89712 -0.108829,-1.72403 0.692313,-2.73162 2.171933,-2.73162 0.819505,0 1.240913,0.2285 2.436433,1.32114 2.370605,2.1666 2.809565,3.85333 1.309812,5.03304 -0.700412,0.55094 -1.430339,0.63748 -2.315835,0.27456 z"
         id="path52624" />
      <path
         style="fill:#eaa191;stroke-width:0.264583"
         d="m 110.74,233.85416 c -0.0437,-2.197 0.01,-4.0495 0.11903,-4.11665 0.10914,-0.0672 0.19844,1.73039 0.19844,3.99455 0,2.26417 -0.0536,4.11666 -0.11904,4.11666 -0.0655,0 -0.15476,-1.79755 -0.19843,-3.99456 z m 9.57788,-0.63565 c 0,-2.59512 0.0701,-4.64834 0.15569,-4.56271 0.18058,0.18058 0.14788,8.97755 -0.034,9.15947 -0.0669,0.0669 -0.12165,-2.00164 -0.12165,-4.59676 z m -16.66874,-1.71979 c 0,-1.06715 0.0802,-1.86005 0.17828,-1.76199 0.18622,0.18621 0.12595,3.39803 -0.0674,3.59137 -0.061,0.061 -0.1109,-0.76223 -0.1109,-1.82938 z m -9.576831,-2.5404 c -0.0443,-1.97931 0.007,-3.73548 0.11392,-3.9026 0.10691,-0.16713 0.19621,1.4523 0.19844,3.59873 0.002,2.14643 -0.049,3.9026 -0.11392,3.9026 -0.0649,0 -0.15419,-1.61943 -0.19844,-3.59873 z m 35.727931,1.45623 c -0.0493,-0.88734 -2.7e-4,-1.66828 0.10879,-1.73541 0.10914,-0.0671 0.19844,0.65887 0.19844,1.61334 0,0.95447 -0.049,1.73541 -0.10879,1.73541 -0.0598,0 -0.14914,-0.72601 -0.19844,-1.61334 z m 7.18639,-2.75229 c 0,-2.15855 0.0717,-3.85298 0.15926,-3.76539 0.18178,0.18178 0.14469,7.38611 -0.039,7.56977 -0.0661,0.0661 -0.12028,-1.64582 -0.12028,-3.80438 z m -57.205301,-4.25961 c -0.04234,-2.85212 0.01048,-5.32266 0.117401,-5.49011 0.106913,-0.16744 0.19621,2.1661 0.198438,5.18566 0.0021,3.01956 -0.0506,5.49011 -0.117401,5.49011 -0.0668,0 -0.156096,-2.33355 -0.198438,-5.18566 z M 186.81028,186.38727 c 0.002,-0.87313 0.0509,-1.19842 0.10977,-0.72287 0.0589,0.47555 0.0577,1.18992 -0.003,1.5875 -0.0604,0.39758 -0.10855,0.008 -0.10707,-0.86463 z"
         id="path52622" />
      <path
         style="fill:#a4e268;stroke-width:0.264583"
         d="m 136.2643,206.68135 c -0.32452,-0.0489 -0.84263,-0.40834 -1.15135,-0.79878 -0.50165,-0.63444 -0.55009,-0.97069 -0.45578,-3.16379 0.0962,-2.23681 0.16815,-2.51651 0.81341,-3.16177 1.0037,-1.0037 2.40882,-0.98008 3.29955,0.0555 0.61789,0.71834 0.65026,0.90807 0.54918,3.21921 -0.0922,2.10793 -0.19304,2.54703 -0.71178,3.0992 -0.63105,0.67172 -1.34599,0.9007 -2.34323,0.75047 z m 26.77116,-11.0723 c -0.64467,-0.69562 -0.64883,-0.73468 -0.64883,-6.10281 0,-5.46271 0.10603,-6.16732 1.03541,-6.88087 0.70097,-0.53819 2.04225,-0.39748 2.85244,0.29924 l 0.74236,0.63839 v 5.69003 c 0,5.65777 -0.004,5.6939 -0.64143,6.37307 -0.90035,0.95875 -2.4429,0.95088 -3.33995,-0.017 z m -82.82282,-0.21092 c -1.45428,-0.62177 -1.796513,-2.6731 -0.623131,-3.735 0.45579,-0.41248 6.510933,-2.21665 10.471626,-3.12009 1.418254,-0.32351 1.731618,-0.32084 2.436953,0.0208 1.520461,0.73638 1.664181,2.97158 0.248792,3.86946 -0.488275,0.30976 -8.245884,2.52932 -11.058161,3.1639 -0.363803,0.0821 -1.028039,-0.007 -1.476079,-0.19903 z m 74.54425,-35.75321 c -1.06625,-0.44832 -1.2751,-0.93102 -1.47975,-3.42015 -0.14408,-1.75236 -0.0924,-2.27505 0.30054,-3.03685 0.59073,-1.14541 1.76661,-1.56267 2.88845,-1.02499 1.07765,0.5165 1.3973,1.39642 1.45839,4.01458 0.0481,2.06047 -0.008,2.36491 -0.54114,2.93231 -0.74393,0.79188 -1.60067,0.96643 -2.62649,0.5351 z"
         id="path52620" />
      <path
         style="fill:#da6a83;stroke-width:0.264583"
         d="m 146.45908,227.59612 c -0.0439,-2.14643 0.006,-4.0812 0.11065,-4.29948 0.10472,-0.21828 0.19402,1.53789 0.19844,3.9026 0.004,2.36472 -0.0454,4.29948 -0.11065,4.29948 -0.0653,0 -0.15458,-1.75617 -0.19844,-3.9026 z m -59.478695,-0.99219 c 0,-1.43095 0.07484,-2.5269 0.166309,-2.43543 0.185925,0.18593 0.143806,4.72705 -0.0456,4.91646 -0.06639,0.0664 -0.120708,-1.05008 -0.120708,-2.48103 z m -14.287499,-7.01146 c 0,-1.50371 0.07526,-2.65876 0.167254,-2.56677 0.184611,0.18461 0.138623,4.99492 -0.04955,5.1831 -0.06474,0.0647 -0.117701,-1.11261 -0.117701,-2.61633 z m 88.063274,1.43556 c -0.0529,-0.66565 -0.007,-1.35026 0.1016,-1.52135 0.10882,-0.1711 0.19968,0.37353 0.2019,1.21027 0.005,1.822 -0.16915,2.00035 -0.3035,0.31108 z M 51.631364,197.10289 c 0,-2.11005 0.04109,-2.97326 0.09131,-1.91823 0.05022,1.05503 0.05022,2.78143 0,3.83646 -0.05022,1.05502 -0.09131,0.19182 -0.09131,-1.91823 z m 110.600976,-7.80521 c 2.5e-4,-2.76489 0.0395,-3.86004 0.0871,-2.43365 0.0477,1.42639 0.0475,3.68857 -5.3e-4,5.02708 -0.0479,1.33851 -0.0869,0.17147 -0.0867,-2.59343 z m 24.58064,0.13229 c 0,-0.94588 0.048,-1.33283 0.10672,-0.85989 0.0587,0.47294 0.0587,1.24685 0,1.71979 -0.0587,0.47294 -0.10672,0.086 -0.10672,-0.8599 z m -67.2227,-21.3594 c 0.5457,-0.0571 1.43867,-0.0571 1.98438,0 0.5457,0.0571 0.0992,0.10378 -0.99219,0.10378 -1.09141,0 -1.53789,-0.0467 -0.99219,-0.10378 z"
         id="path52618" />
      <path
         style="fill:#489ed9;stroke-width:0.264583"
         d="m 87.372926,213.01838 c -0.438946,-0.26769 -1.361681,-1.11355 -2.050521,-1.87971 -1.017293,-1.13147 -1.252437,-1.57697 -1.252437,-2.37284 0,-1.12256 0.701842,-2.03839 1.766994,-2.30572 0.964033,-0.24196 2.23257,0.49926 3.81196,2.22737 1.070353,1.17113 1.298726,1.59427 1.291799,2.3935 -0.0092,1.06514 -0.347922,1.64797 -1.230963,2.11828 -0.807776,0.43022 -1.411364,0.3835 -2.336832,-0.18088 z m 78.069584,-42.62425 c -2.69313,-0.93008 -3.8555,-1.46594 -4.29948,-1.98209 -1.07601,-1.25094 -0.64311,-2.91641 0.9271,-3.56681 0.66506,-0.27548 1.14998,-0.19126 3.78085,0.65659 5.18354,1.67051 5.76413,1.93226 6.21349,2.80122 0.80829,1.56306 -0.34766,3.41917 -2.10675,3.38282 -0.45332,-0.009 -2.48516,-0.59065 -4.51521,-1.29173 z m -58.10497,-13.31788 c -1.08998,-0.8514 -5.81354,-6.34936 -5.96149,-6.93884 -0.42515,-1.69392 1.35444,-3.33348 2.99676,-2.76096 0.75235,0.26227 5.72927,5.57315 6.40378,6.8335 0.40075,0.7488 0.16465,1.81386 -0.5786,2.61013 -0.6215,0.66582 -2.15965,0.80357 -2.86045,0.25617 z"
         id="path52616" />
      <path
         style="fill:#d65b80;stroke:#d65b80;stroke-width:0.865;stroke-miterlimit:4;stroke-dasharray:none;stroke-opacity:1"
         d="m 114.59354,241.56474 c -1.27612,-0.30334 -2.48855,-1.30275 -3.03193,-2.49922 -0.41616,-0.91636 -0.49666,-1.80239 -0.51922,-5.71472 -0.0147,-2.54661 -0.0913,-4.45161 -0.17025,-4.23333 -0.54729,1.51308 -1.05019,2.19631 -1.95721,2.65903 -0.55626,0.28379 -1.26016,0.51597 -1.56423,0.51597 -1.25595,0 -2.87683,-1.3313 -3.38242,-2.77812 -0.2345,-0.67107 -0.2806,-0.43428 -0.29826,1.53189 -0.0158,1.7619 -0.14737,2.57357 -0.54267,3.34843 -1.74552,3.42149 -6.516121,3.38017 -8.186761,-0.0709 -0.49304,-1.01849 -0.55311,-1.63178 -0.56348,-5.75284 -0.0106,-4.2171 -0.0425,-4.5262 -0.37172,-3.60312 -0.4829,1.35398 -1.093279,1.97854 -2.28161,2.33457 -1.755037,0.52582 -3.364399,-0.33361 -4.241657,-2.26514 l -0.490117,-1.07913 -0.0068,2.91041 c -0.0057,2.4457 -0.09206,3.05027 -0.540769,3.78624 -1.016503,1.66726 -3.309167,2.03862 -4.89323,0.79259 -1.321904,-1.03981 -1.448978,-1.77645 -1.461601,-8.47293 -0.0104,-5.52278 -0.04887,-6.05561 -0.371718,-5.15036 -0.482894,1.35398 -1.093277,1.97854 -2.281608,2.33457 -1.758724,0.52693 -3.366034,-0.33358 -4.224078,-2.26145 l -0.481938,-1.08282 -0.01968,2.91041 c -0.01644,2.43087 -0.10766,3.05473 -0.553649,3.78624 -1.016501,1.66726 -3.309165,2.03862 -4.89323,0.7926 -1.266383,-0.99614 -1.447834,-1.87641 -1.47385,-7.15003 -0.01677,-3.40004 -0.09594,-4.58818 -0.266463,-3.99918 -0.546317,1.88701 -3.024852,2.96522 -4.702798,2.04582 -1.957094,-1.07236 -2.002956,-1.25134 -2.150627,-8.39255 -0.0851,-4.11512 -0.210026,-6.09326 -0.350181,-5.54473 -0.434277,1.6996 -2.770889,2.86986 -4.390594,2.19896 -0.419763,-0.17387 -1.041842,-0.61273 -1.382397,-0.97523 -0.593924,-0.6322 -0.628025,-0.89316 -0.835676,-6.39487 -0.263047,-6.96942 -0.06373,-13.9706 0.487975,-17.14054 3.04186,-17.47764 19.710603,-32.24022 43.574906,-38.59186 11.964981,-3.18456 27.066511,-3.73025 39.889721,-1.44141 8.69551,1.55207 16.85828,4.28523 23.78893,7.96529 14.66424,7.78647 23.90561,18.67891 26.50473,31.24009 0.65931,3.18631 1.05528,12.27666 0.73934,16.97275 -0.5818,8.64765 -3.32165,13.18506 -7.99183,13.23507 -1.45051,0.0155 -1.5944,-0.0416 -2.4474,-0.9718 -0.49845,-0.54357 -0.92757,-1.25794 -0.95361,-1.5875 -0.026,-0.32956 -0.11533,1.20796 -0.19844,3.4167 -0.13206,3.50994 -0.22047,4.10997 -0.7017,4.7625 -0.87156,1.18181 -2.19615,1.78706 -3.41185,1.55899 -1.2008,-0.22527 -2.75908,-1.63888 -2.83507,-2.57187 -0.0279,-0.34197 -0.11715,1.72132 -0.19844,4.58509 -0.16595,5.84669 -0.28266,6.2235 -2.22689,7.1897 -1.36088,0.6763 -2.66743,0.40237 -3.79788,-0.79625 -0.81166,-0.86062 -0.87115,-1.04951 -0.88858,-2.82175 l -0.0187,-1.89939 -0.48194,1.08282 c -0.85805,1.92787 -2.46536,2.78838 -4.22408,2.26145 -1.18833,-0.35603 -1.79871,-0.98059 -2.28161,-2.33457 -0.32285,-0.90525 -0.36131,-0.37242 -0.37172,5.15036 -0.0126,6.69648 -0.13969,7.43312 -1.4616,8.47293 -1.58406,1.24603 -3.87673,0.87467 -4.89323,-0.79259 -0.47959,-0.78663 -0.53589,-1.34736 -0.55286,-5.50603 -0.014,-3.43004 -0.0892,-4.45875 -0.29,-3.96875 -0.73466,1.79249 -1.21695,2.50596 -2.06978,3.06193 -2.67726,1.74532 -6.05742,0.50902 -7.01661,-2.56634 -0.33751,-1.08212 -0.36203,-0.86921 -0.37858,3.28786 -0.0191,4.80556 -0.17026,5.46337 -1.49446,6.50499 -1.57494,1.23884 -3.80572,0.83155 -4.86907,-0.88898 -0.42131,-0.68169 -0.53504,-1.32881 -0.54146,-3.08069 l -0.008,-2.21773 -0.58718,1.44377 c -0.80405,1.977 -2.2842,3.03525 -4.24532,3.03525 -2.22289,0 -3.727,-1.13683 -4.54603,-3.43598 -0.34284,-0.96239 -0.37291,-0.64414 -0.38899,4.11634 -0.0151,4.47955 -0.0836,5.30523 -0.52001,6.26635 -0.84134,1.85311 -3.17226,2.96116 -5.21014,2.47675 z M 89.930595,213.22118 c 0.293793,-0.15724 0.704284,-0.69302 0.912198,-1.19063 0.526249,-1.25949 0.07141,-2.22426 -1.954574,-4.14589 -1.253067,-1.18853 -1.785718,-1.52135 -2.434752,-1.52135 -1.119073,0 -1.766697,0.38598 -2.265248,1.35007 -0.649542,1.25607 -0.289089,2.10235 1.722688,4.04455 1.896833,1.83124 2.751058,2.1422 4.019688,1.46325 z m 30.361625,-0.17715 c 1.24387,-1.02456 1.09445,-3.32129 -0.26334,-4.04796 -1.26396,-0.67645 -7.54098,-2.63276 -8.44748,-2.63276 -2.1516,0 -3.19499,2.77876 -1.56802,4.17598 0.72085,0.61905 7.55899,2.92107 8.75384,2.94693 0.55361,0.012 1.2018,-0.17597 1.525,-0.44219 z m 37.20376,-1.73984 c 0.216,-0.30839 0.39274,-0.97146 0.39274,-1.4735 0,-0.77514 -0.27241,-1.18519 -1.80647,-2.71925 -1.56625,-1.56625 -1.93371,-1.80647 -2.76337,-1.80647 -1.39045,0 -2.36225,0.91524 -2.36225,2.22476 0,0.9005 0.20374,1.22124 1.79314,2.82291 0.98622,0.99384 2.03993,1.847 2.34156,1.89591 0.82437,0.13366 1.96269,-0.31338 2.40465,-0.94436 z m -18.94289,-5.14372 c 0.64622,-0.64622 0.75386,-1.00142 0.91854,-3.03099 0.14907,-1.83716 0.10368,-2.45923 -0.22593,-3.09662 -0.75363,-1.45736 -2.48811,-1.80283 -3.72214,-0.74136 -0.60047,0.5165 -0.73378,0.91353 -0.94718,2.82094 -0.29309,2.61966 -0.0111,3.80311 1.04263,4.37535 1.11558,0.60584 2.11209,0.49467 2.93408,-0.32732 z m -11.28714,-9.97997 c 6.57084,-1.14586 12.42523,-4.30973 15.1941,-8.21133 1.57654,-2.22148 2.02589,-3.69836 1.88193,-6.18532 -0.15706,-2.71307 -1.19604,-4.67834 -3.76177,-7.11554 -4.41858,-4.19721 -11.47222,-6.48607 -19.99774,-6.48912 -7.10638,-0.003 -12.97166,1.55293 -17.69431,4.69254 -4.708991,3.13053 -7.019091,7.90734 -5.729211,11.84683 0.25286,0.77227 0.50292,1.6273 0.5557,1.90008 0.21455,1.10892 2.01985,3.2397 3.941111,4.65168 3.89047,2.85917 8.76957,4.63167 14.57484,5.2948 2.70932,0.30948 8.14062,0.12018 11.03535,-0.38462 z m 39.28787,-0.53864 c 0.57667,-0.66369 0.59531,-0.85896 0.59531,-6.23595 0,-6.08114 -0.10665,-6.56381 -1.56248,-7.07132 -1.0123,-0.35289 -1.98595,-0.11592 -2.7161,0.66105 -0.60439,0.64314 -0.61621,0.7611 -0.61621,6.15022 0,5.83036 0.12888,6.5444 1.28708,7.13108 0.88128,0.44641 2.3399,0.1389 3.0124,-0.63508 z m -79.907387,-1.1895 c 2.730288,-0.73019 5.353817,-1.50346 5.830067,-1.71838 0.893625,-0.40327 1.383049,-1.25807 1.383049,-2.41554 0,-0.87613 -1.343703,-2.21138 -2.225382,-2.21138 -0.689689,0 -9.995457,2.42564 -11.345049,2.9572 -1.670347,0.65789 -2.040888,2.63885 -0.737418,3.94232 0.452742,0.45274 1.054743,0.77339 1.451986,0.77339 0.373224,0 2.912462,-0.59742 5.642747,-1.32761 z m -14.892388,-9.10103 c 1.058217,-0.44215 1.468007,-1.10232 1.468007,-2.36493 0,-0.74063 -0.267953,-1.2153 -1.361483,-2.41179 -2.178607,-2.38375 -3.504912,-2.80345 -4.968216,-1.57216 -0.658255,0.55389 -0.81405,0.88679 -0.81405,1.73944 0,0.92137 0.192013,1.25685 1.521354,2.65806 1.215769,1.2815 2.508652,2.22187 3.183498,2.3155 0.04105,0.006 0.477955,-0.15816 0.97089,-0.36412 z m 12.195657,-13.76871 c 0.406913,-0.40691 0.649433,-0.95216 0.649433,-1.46011 0,-0.44587 -0.557331,-3.03809 -1.238514,-5.76048 -1.371947,-5.48306 -1.735985,-6.15289 -3.343987,-6.15289 -1.05791,0 -2.170047,0.78241 -2.396901,1.68627 -0.261548,1.04209 2.291372,10.90955 3.024403,11.68983 0.840472,0.89464 2.409555,0.8934 3.305566,-0.003 z m 87.288618,-0.0441 c 0.5442,-0.20883 1.20248,-1.46814 1.20248,-2.30037 0,-1.36335 -0.85069,-1.92007 -5.0961,-3.33502 -2.2179,-0.73921 -4.30948,-1.34401 -4.64795,-1.34401 -0.96001,0 -2.1622,1.36992 -2.1622,2.46388 0,1.52627 0.63396,1.98643 4.64516,3.37172 3.50611,1.21085 5.09982,1.51172 6.05861,1.1438 z m -13.68033,-12.40918 c 1.08572,-1.24956 0.7183,-5.98967 -0.53218,-6.86554 -0.92862,-0.65044 -2.39266,-0.51653 -3.20206,0.29286 -0.64044,0.64044 -0.69753,0.87544 -0.69753,2.87093 0,2.59008 0.34036,3.71473 1.28483,4.24548 0.97643,0.5487 2.41348,0.3004 3.14694,-0.54373 z m -16.94044,-0.11925 c 0.90474,-0.55164 1.28785,-1.46526 1.0357,-2.46989 -0.0843,-0.33583 -0.97859,-1.40739 -1.98733,-2.38125 -2.16357,-2.08875 -3.00088,-2.28352 -4.28714,-0.99726 -1.26999,1.26999 -0.94649,2.44174 1.25637,4.55073 2.05991,1.97213 2.59191,2.14549 3.9824,1.29767 z m -31.11331,-1.59472 c 0.58401,0 1.55323,-1.42323 1.55323,-2.2808 0,-0.91288 -1.23484,-2.53615 -4.7625,-6.26058 -1.88172,-1.98668 -2.99707,-2.26058 -4.22106,-1.0366 -1.19544,1.19544 -1.11194,2.31277 0.29439,3.93949 4.34297,5.02359 5.56033,6.09794 6.528,5.76114 0.1938,-0.0675 0.46737,-0.12265 0.60794,-0.12265 z"
         id="path52614" />
      <path
         style="fill:#d55a50;stroke-width:0.264583"
         d="m 155.09133,212.24855 c -0.30163,-0.0489 -1.35534,-0.90207 -2.34156,-1.89591 -1.5894,-1.60167 -1.79314,-1.92241 -1.79314,-2.82291 0,-1.30952 0.9718,-2.22476 2.36225,-2.22476 0.82966,0 1.19712,0.24022 2.76337,1.80647 1.53406,1.53406 1.80647,1.94411 1.80647,2.71925 0,1.55882 -1.27877,2.66409 -2.79739,2.41786 z M 80.644136,171.58524 c -0.733031,-0.78028 -3.285951,-10.64774 -3.024403,-11.68983 0.226854,-0.90386 1.338991,-1.68627 2.396901,-1.68627 1.608002,0 1.97204,0.66983 3.343987,6.15289 0.681183,2.72239 1.238514,5.31461 1.238514,5.76048 0,1.89528 -2.633601,2.86929 -3.954999,1.46273 z m 57.797704,-12.35949 c -0.83342,-0.45709 -3.04579,-2.6634 -3.46034,-3.45086 -0.56385,-1.07108 -0.45969,-1.75622 0.39728,-2.61318 1.28626,-1.28626 2.12357,-1.09149 4.28714,0.99726 1.00874,0.97386 1.90304,2.04542 1.98733,2.38125 0.25215,1.00463 -0.13096,1.91825 -1.0357,2.46989 -0.96433,0.58798 -1.4153,0.63268 -2.17571,0.21564 z"
         id="path52612" />
      <path
         style="fill:#fffcfd;fill-opacity:1;stroke:none;stroke-width:0.264583px;stroke-linecap:butt;stroke-linejoin:miter;stroke-opacity:1"
         d="m 120.51771,209.48385 c 0,0 -7.34219,-2.57969 -9.12812,-3.04271 -1.78594,-0.46302 -2.18282,1.85209 -2.18282,1.85209 0,0 -0.46302,1.52135 0.79375,2.11666 1.25677,0.59532 6.81302,2.51354 8.86354,3.04271 2.05053,0.52917 2.31511,-1.71979 2.31511,-1.71979 0,0 0.33073,-1.52135 -0.66146,-2.24896 z"
         id="path53720" />
    </g>
  </g>
</svg>
