<?xml version="1.0" encoding="UTF-8" standalone="no"?>
<!-- Created with Inkscape (http://www.inkscape.org/) -->

<svg
   width="300"
   height="300"
   viewBox="0 0 79.374998 79.374998"
   version="1.1"
   id="svg54694"
   inkscape:version="1.1.1 (3bf5ae0d25, 2021-09-20)"
   sodipodi:docname="icon-meat.svg"
   xmlns:inkscape="http://www.inkscape.org/namespaces/inkscape"
   xmlns:sodipodi="http://sodipodi.sourceforge.net/DTD/sodipodi-0.dtd"
   xmlns="http://www.w3.org/2000/svg"
   xmlns:svg="http://www.w3.org/2000/svg">
  <sodipodi:namedview
     id="namedview54696"
     pagecolor="#ffffff"
     bordercolor="#666666"
     borderopacity="1.0"
     inkscape:pageshadow="2"
     inkscape:pageopacity="0.0"
     inkscape:pagecheckerboard="0"
     inkscape:document-units="mm"
     showgrid="false"
     units="px"
     inkscape:zoom="1.6017536"
     inkscape:cx="-52.754679"
     inkscape:cy="135.16436"
     inkscape:window-width="2560"
     inkscape:window-height="1377"
     inkscape:window-x="1072"
     inkscape:window-y="468"
     inkscape:window-maximized="1"
     inkscape:current-layer="layer1" />
  <defs
     id="defs54691" />
  <g
     inkscape:label="Layer 1"
     inkscape:groupmode="layer"
     id="layer1">
    <g
       id="g50301"
       transform="matrix(0.4699231,0,0,0.4699231,-11.448588,-47.564216)">
      <path
         style="fill:#fdd1b7;stroke-width:0.264583"
         d="m 112.80679,246.0399 c -4.86447,-0.60481 -9.88678,-1.77912 -15.081244,-3.52627 -1.600729,-0.5384 -2.994128,-1.09597 -3.09644,-1.23903 -0.174453,-0.24393 -1.265108,-3.25107 -1.656951,-4.56853 -0.155667,-0.52338 -0.08221,-0.59531 0.607968,-0.59531 0.431766,0 1.898303,0.43515 3.258976,0.96702 5.005071,1.95638 12.430591,3.78487 17.026031,4.19255 3.42843,0.30414 3.35896,0.26835 3.1554,1.62575 -0.28718,1.91505 -0.80506,3.39853 -1.19984,3.43696 -0.20244,0.0197 -1.55869,-0.11222 -3.0139,-0.29314 z m 17.82631,-0.2784 c -0.0524,-0.61843 -0.0941,-0.76644 -0.31343,-1.11163 -0.33111,-0.5212 -0.49496,-2.81765 -0.22892,-3.20869 0.13454,-0.19777 1.50926,-0.58514 3.07038,-0.86518 5.46506,-0.98032 11.22854,-2.78482 17.16709,-5.37487 1.8558,-0.80939 3.48931,-1.47162 3.63002,-1.47162 0.62905,0 -0.14213,4.77272 -0.88096,5.45219 -0.49398,0.45429 -5.81891,2.58769 -9.04965,3.62569 -3.52563,1.13273 -7.51018,2.13937 -10.18646,2.57345 -1.09141,0.17702 -2.25227,0.42291 -2.57969,0.54642 -0.44599,0.16824 -0.60361,0.12666 -0.62838,-0.16576 z m -18.88464,-12.18412 c -3.20828,-0.42314 -7.54855,-1.37906 -11.1125,-2.44748 -3.031342,-0.90875 -7.553299,-2.60419 -7.922784,-2.97052 -0.137427,-0.13625 -0.505873,-1.31433 -0.818772,-2.61794 -0.757988,-3.158 -0.727202,-3.16727 3.979058,-1.19854 4.687198,1.96076 11.366928,3.74651 16.271878,4.35011 3.50088,0.43082 3.34675,0.34685 3.55145,1.93496 0.098,0.75996 0.24713,1.82823 0.33151,2.37393 0.15241,0.9857 0.14757,0.99197 -0.74029,0.95831 -0.49155,-0.0186 -2.08434,-0.19091 -3.53955,-0.38283 z m 19.20217,-0.44318 c 0.0109,-0.18191 0.16049,-1.28127 0.33236,-2.44304 l 0.31249,-2.1123 2.78661,-0.56645 c 6.00093,-1.21985 13.53515,-3.82221 18.9738,-6.55366 2.24253,-1.12627 4.03319,-1.56373 4.03319,-0.98531 0,0.45848 -1.67325,4.92496 -1.95957,5.23077 -0.42318,0.45198 -5.39529,2.63247 -8.75605,3.83991 -3.99344,1.43474 -7.8522,2.50728 -11.77396,3.27255 -3.82735,0.74685 -3.97539,0.75876 -3.94887,0.31753 z M 109.6318,219.02297 c -6.91446,-1.21373 -13.44034,-3.30187 -20.108337,-6.43423 l -2.910417,-1.3672 -1.360702,-2.88549 c -0.748387,-1.58701 -1.29409,-2.9521 -1.212674,-3.03351 0.471978,-0.47198 2.052238,0.0412 5.17529,1.68059 7.177795,3.76789 14.63068,6.19224 23.22778,7.55577 0.93059,0.1476 0.96412,0.19287 1.13717,1.53541 0.0981,0.76083 0.24734,1.82981 0.33172,2.37551 l 0.15342,0.99219 -1.15829,-0.0237 c -0.63707,-0.0131 -2.1108,-0.19095 -3.27496,-0.39531 z m 23.58624,-0.3127 c -0.0744,-0.12034 0.008,-1.22484 0.18251,-2.45442 l 0.31775,-2.23562 1.4505,-0.35754 c 10.62507,-2.61902 18.16443,-5.8358 27.78844,-11.85634 2.11001,-1.31997 3.46072,-1.73846 3.8063,-1.17929 0.0799,0.12927 -0.59234,1.63147 -1.49385,3.33822 -1.87563,3.55094 -1.65486,3.36327 -7.55088,6.41892 -6.85831,3.55436 -12.00673,5.56223 -18.45368,7.19685 -4.78615,1.21354 -5.86991,1.41591 -6.04709,1.12922 z m -25.43833,-14.23484 c -8.477915,-1.15344 -17.424418,-3.50152 -26.764485,-7.02456 l -1.629072,-0.61448 -1.499234,-2.8524 -1.499235,-2.8524 h 1.038702 c 0.636757,0 2.154467,0.46819 3.922056,1.2099 7.536374,3.16238 16.686227,5.72895 24.946018,6.99747 2.89304,0.44431 3.34195,0.458 3.82918,0.11672 1.13959,-0.79819 1.47281,-0.53077 1.41398,1.13477 -0.0296,0.83674 0.0397,2.14643 0.15381,2.91041 l 0.20755,1.38907 -0.73672,-0.0273 c -0.40519,-0.015 -1.92734,-0.18925 -3.38255,-0.38723 z m 27.53622,-1.23915 c 0.11083,-0.76398 0.18386,-1.90066 0.16231,-2.52595 -0.0216,-0.62529 0.0685,-1.07031 0.20021,-0.98893 0.32294,0.19959 4.82839,-0.48795 9.66574,-1.47502 6.68762,-1.36462 15.03706,-3.93404 21.52945,-6.62539 3.92034,-1.62513 4.62149,-1.84833 5.28438,-1.6822 0.60785,0.15232 0.60064,0.17846 -0.75069,2.72382 -0.75044,1.41351 -1.50287,2.70628 -1.67207,2.87282 -0.38936,0.38323 -7.048,2.91853 -10.93664,4.16417 -7.46447,2.39108 -19.21399,4.92574 -22.83342,4.92574 h -0.85077 z M 108.5409,191.50177 c -1.00697,-2.2459 -1.18397,-5.93349 -0.40751,-8.48981 1.4703,-4.84066 5.81226,-8.72637 11.22184,-10.04267 l 1.78594,-0.43457 V 166.06236 159.59 l -2.4474,0.16985 c -15.76573,1.09415 -29.011645,4.54423 -43.155355,11.24041 -1.870944,0.88578 -3.554846,1.6105 -3.742005,1.6105 -0.543712,0 -0.663189,-0.66356 -0.635114,-3.52737 0.0145,-1.47968 0.103802,-2.43287 0.198437,-2.1182 0.167277,0.55622 0.260396,0.53157 3.347064,-0.88597 10.66981,-4.90007 21.043732,-8.12223 31.755193,-9.86322 3.79955,-0.61756 10.84576,-1.33232 13.13417,-1.33232 h 1.54501 v -4.7625 -4.7625 l -1.38906,7.9e-4 c -3.46888,0.002 -12.37763,1.11117 -17.13177,2.13248 -8.579464,1.84306 -17.056643,4.64595 -25.119004,8.30531 -2.023419,0.91839 -3.566904,1.46316 -4.007564,1.41447 l -0.716686,-0.0791 0.912017,-2.80018 c 0.501609,-1.54009 1.054856,-2.80204 1.229438,-2.80432 0.174582,-0.002 1.865235,-0.6652 3.757006,-1.47315 9.171046,-3.91681 18.853882,-6.75733 28.178123,-8.26621 3.47008,-0.56154 9.5148,-1.19186 11.47149,-1.19621 2.98274,-0.007 2.81601,0.23067 2.81601,-4.00799 v -3.6853 l -0.8599,0.13143 c -0.47294,0.0723 -2.22911,0.20281 -3.9026,0.29005 -8.39355,0.43755 -17.93286,2.42045 -27.516666,5.71978 -5.791709,1.99386 -6.760019,2.23848 -7.813824,1.97399 l -0.671512,-0.16854 1.449597,-1.85264 c 1.324472,-1.69273 4.622032,-5.45917 3.891497,-4.44482 -0.233336,0.32399 0.592551,0.14262 3.243955,-0.71236 9.489049,-3.05989 19.358203,-4.93018 29.335183,-5.55927 l 2.84427,-0.17935 v -6.05381 -6.05381 l 3.24115,0.0423 c 1.78263,0.0233 2.85419,0.0904 2.38125,0.14906 l -0.8599,0.10671 v 5.88638 5.88637 l 4.81787,0.32484 c 9.67847,0.65256 17.74687,2.21532 26.97427,5.22462 3.59185,1.1714 3.62348,1.18876 5.15937,2.83151 2.10922,2.25598 3.52974,4.01669 3.52974,4.37507 0,0.78999 -1.42035,0.6113 -4.4463,-0.5594 -10.96828,-4.24348 -22.89903,-6.78832 -33.38912,-7.12194 l -2.51354,-0.0799 -0.0735,3.61807 -0.0735,3.61807 1.39639,0.14111 c 0.76802,0.0776 2.58703,0.20466 4.04224,0.28231 9.66078,0.51554 21.78538,3.25705 31.88229,7.20895 4.53647,1.77557 9.96106,4.43919 10.28917,5.05227 0.15716,0.29365 0.6407,1.58707 1.07454,2.87427 0.78586,2.33164 0.7867,2.34071 0.22535,2.43061 -0.32029,0.0513 -2.40019,-0.8258 -4.81949,-2.03239 -12.65858,-6.31329 -27.09256,-10.15657 -40.57637,-10.80412 l -3.512,-0.16866 0.0724,4.73767 0.0724,4.73768 1.5875,0.0619 c 15.72772,0.61303 31.1812,4.63079 45.37604,11.79736 l 3.83646,1.93691 0.0754,2.69308 c 0.0491,1.75365 -0.0216,2.69307 -0.20263,2.69307 -0.15291,0 -1.81785,-0.84461 -3.69985,-1.87692 -10.22906,-5.61078 -23.42667,-9.91053 -35.19896,-11.46776 -3.54142,-0.46845 -8.8421,-0.93617 -10.6541,-0.94009 l -1.2614,-0.003 0.0708,6.52764 0.0708,6.52765 1.52592,0.34642 c 4.20489,0.95463 8.30787,4.14928 10.22036,7.95775 1.44879,2.88507 1.67927,6.95318 0.56107,9.90304 -0.86851,2.29117 -0.77092,2.28572 -2.94837,0.16459 -3.36118,-3.27424 -6.91192,-4.92689 -11.10864,-5.17039 -4.97027,-0.28837 -9.45969,1.55626 -13.39485,5.50376 l -1.65076,1.65593 z m 83.07607,-20.87538 c 7.9e-4,-1.45521 0.0451,-2.01677 0.0987,-1.24791 0.0536,0.76887 0.0531,1.95949 -10e-4,2.64584 -0.0542,0.68634 -0.0981,0.0573 -0.0974,-1.39793 z m -104.077882,-38.1 c 0.790422,-0.80037 1.496663,-1.45521 1.569423,-1.45521 0.07276,0 -0.514417,0.65484 -1.30484,1.45521 -0.790422,0.80036 -1.496663,1.45521 -1.569423,1.45521 -0.07276,0 0.514417,-0.65485 1.30484,-1.45521 z"
         id="path50307" />
      <path
         style="fill:#fda79b;stroke-width:0.264583"
         d="m 105.7014,251.03749 c -2.46376,-0.59641 -5.06829,-2.12079 -7.031488,-4.11538 -1.733425,-1.76114 -3.944752,-5.04873 -3.496439,-5.19816 0.1276,-0.0425 1.230267,0.28704 2.450369,0.73239 4.162928,1.5195 11.385248,3.20527 15.315248,3.57474 0.94588,0.0889 2.04926,0.22486 2.45194,0.30208 l 0.73216,0.14039 -0.59987,1.07064 c -0.81341,1.45178 -2.61871,2.9905 -4.10125,3.49565 -1.47955,0.50414 -3.63207,0.50325 -5.72067,-0.002 z m 30.21946,0.004 c -1.47986,-0.45562 -3.74226,-2.40979 -4.49257,-3.88053 -0.29395,-0.57619 -0.47979,-1.10227 -0.41299,-1.16908 0.0668,-0.0668 1.3701,-0.34663 2.8962,-0.62184 3.46396,-0.62467 6.37575,-1.36255 10.11613,-2.56353 2.9914,-0.96051 8.46715,-3.13494 9.0704,-3.60189 0.47342,-0.36645 0.0598,0.67616 -1.33727,3.37086 -1.54113,2.97255 -4.60934,6.06143 -7.33626,7.38568 -2.8759,1.3966 -6.13254,1.81033 -8.50364,1.08033 z m 6.57951,0.22384 c 0.4697,-0.0584 1.30314,-0.0594 1.85209,-0.002 0.54894,0.0573 0.16465,0.1051 -0.854,0.10627 -1.01865,0.001 -1.46779,-0.0457 -0.99809,-0.10414 z m -18.06431,-13.83195 c 0,-5.45703 0.0352,-7.68945 0.0782,-4.96093 0.043,2.72851 0.043,7.19336 0,9.92187 -0.043,2.72852 -0.0782,0.4961 -0.0782,-4.96094 z m -10.70322,3.84231 c -5.52202,-0.65047 -11.66202,-2.16839 -16.677521,-4.12299 -1.470909,-0.57323 -3.023171,-1.04223 -3.449471,-1.04223 h -0.775094 v -3.14193 c 0,-1.72806 -0.07286,-3.5062 -0.161898,-3.95142 l -0.161899,-0.80949 2.741586,1.06713 c 3.388923,1.31909 7.133147,2.44723 10.943667,3.29732 3.17327,0.70793 9.00593,1.51278 9.68595,1.33656 0.35572,-0.0922 0.49686,0.39413 0.86022,2.964 0.52581,3.7187 0.54938,4.8052 0.10331,4.76219 -0.1819,-0.0175 -1.58088,-0.17915 -3.10885,-0.35914 z m 16.14777,0.12644 c 1.2e-4,-0.53636 1.02751,-7.74177 1.11392,-7.81228 0.0377,-0.0307 1.49726,-0.31939 3.24351,-0.64144 3.7954,-0.69996 8.45563,-1.97605 12.43542,-3.40513 3.08744,-1.10866 8.21094,-3.33482 8.84693,-3.84399 0.31348,-0.25097 0.34508,-0.2115 0.17995,0.22472 -0.53704,1.4186 -1.21817,4.9274 -1.21982,6.28385 -0.001,1.15986 -0.0941,1.52136 -0.38999,1.52136 -0.21347,0 -1.90651,0.66223 -3.76231,1.47162 -5.93855,2.59005 -11.70203,4.39455 -17.16709,5.37487 -1.59125,0.28544 -2.92594,0.66359 -3.05368,0.86518 -0.18448,0.29114 -0.22691,0.28389 -0.22684,-0.0388 z m -17.86757,-12.70227 c -5.74411,-0.84654 -11.46293,-2.40195 -16.271869,-4.42563 -1.527969,-0.643 -3.157223,-1.1833 -3.620566,-1.20066 -0.831996,-0.0312 -0.855912,-0.0702 -1.928889,-3.14521 -0.597548,-1.71249 -1.617434,-4.3369 -2.266414,-5.83201 -0.64898,-1.4951 -1.179964,-2.74122 -1.179964,-2.76913 0,-0.0279 1.272195,0.54932 2.8271,1.28277 3.290281,1.55202 7.876951,3.35602 10.571692,4.158 4.95466,1.47455 11.84603,2.83423 13.29045,2.62223 l 0.75482,-0.11078 0.57544,4.11603 c 0.3165,2.26382 0.64374,4.50299 0.72721,4.97594 0.0835,0.47294 0.0492,0.8456 -0.0761,0.82813 -0.12534,-0.0175 -1.65664,-0.24232 -3.40289,-0.49968 z m 19.71146,-0.37003 c 0,-0.0592 0.29766,-2.1539 0.66146,-4.65478 0.3638,-2.50088 0.66208,-4.62529 0.66283,-4.72092 7.9e-4,-0.0956 0.45726,-0.19944 1.01446,-0.23069 1.53048,-0.0858 8.79003,-2.01101 12.08104,-3.2038 5.10231,-1.84926 11.1771,-4.69324 15.56077,-7.28494 l 1.98956,-1.17626 -1.46472,3.08279 c -0.8056,1.69553 -2.17466,4.69483 -3.04236,6.66512 l -1.57765,3.58233 -0.86125,-0.10054 c -0.6361,-0.0743 -1.5469,0.2419 -3.48385,1.20935 -5.42189,2.70805 -13.54227,5.51216 -18.91295,6.53095 -2.2883,0.43409 -2.62734,0.47298 -2.62734,0.30139 z m -19.71146,-13.83888 c -7.04974,-0.96795 -15.889729,-3.88158 -22.828662,-7.52425 -2.643309,-1.38764 -3.725092,-1.82437 -4.365624,-1.76247 -0.84744,0.0819 -0.861961,0.0625 -3.015408,-4.01566 -1.190127,-2.25386 -2.127945,-4.13386 -2.084039,-4.17776 0.0439,-0.0439 0.96405,0.27142 2.044766,0.70073 8.018037,3.1851 19.182007,5.99775 27.499487,6.92822 l 2.80677,0.31399 0.57997,4.00284 c 0.31898,2.20156 0.64676,4.38979 0.7284,4.86273 0.10899,0.63135 0.0527,0.84936 -0.21173,0.82026 -0.1981,-0.0218 -0.71736,-0.0887 -1.15393,-0.14863 z m 21.83174,-0.80392 c 0.002,-0.10914 0.2971,-2.10344 0.65581,-4.43177 0.35871,-2.32833 0.65474,-4.32263 0.65785,-4.43177 0.003,-0.10914 0.37732,-0.19844 0.83158,-0.19844 3.59504,0 15.36968,-2.54285 22.8086,-4.92574 3.63074,-1.16302 10.49267,-3.76173 11.00644,-4.16829 0.33296,-0.26348 -0.2063,0.79411 -2.25495,4.42243 -0.33466,0.5927 -0.6488,0.89624 -0.75302,0.72761 -0.32666,-0.52855 -1.52758,-0.29973 -2.89645,0.55188 -5.75842,3.58241 -9.28569,5.49574 -13.88032,7.52921 -3.94495,1.74593 -8.2169,3.20943 -12.61013,4.32 -3.4704,0.87729 -3.57068,0.8943 -3.56541,0.60488 z m -26.32965,-14.12844 c -8.674942,-1.31187 -17.413321,-3.68032 -24.951405,-6.76281 -1.992977,-0.81497 -4.196648,-1.55264 -4.897045,-1.63927 l -1.273451,-0.1575 -0.913346,-2.10384 c -1.888951,-4.35108 -3.473647,-10.2167 -3.95283,-14.63105 -0.148659,-1.36948 -0.1117,-1.65365 0.215071,-1.65365 0.217016,0 1.925347,-0.72472 3.796291,-1.6105 14.14371,-6.69618 27.389625,-10.14626 43.155355,-11.24041 l 2.4474,-0.16985 v 6.47236 6.47236 l -1.78594,0.43457 c -5.40958,1.3163 -9.75154,5.20201 -11.22184,10.04267 -0.77646,2.55632 -0.59946,6.24391 0.40751,8.48981 l 0.69979,1.5608 1.65076,-1.65593 c 3.93516,-3.9475 8.42458,-5.79213 13.39485,-5.50376 4.19672,0.2435 7.74746,1.89615 11.10864,5.17039 2.17745,2.12113 2.07986,2.12658 2.94837,-0.16459 1.1182,-2.94986 0.88772,-7.01797 -0.56107,-9.90304 -1.91249,-3.80847 -6.01547,-7.00312 -10.22036,-7.95775 l -1.52592,-0.34642 -0.0708,-6.52765 -0.0708,-6.52764 1.2614,0.003 c 1.812,0.004 7.11268,0.47164 10.6541,0.9401 11.77229,1.55722 24.9699,5.85697 35.19896,11.46776 1.882,1.0323 3.54277,1.87691 3.6906,1.87691 1.00231,0 -1.2784,10.12114 -3.32566,14.75835 -0.53691,1.21614 -0.69517,1.37722 -1.22312,1.24492 -0.65556,-0.16428 -1.36258,0.0614 -5.27706,1.68405 -6.49239,2.69134 -14.84183,5.26077 -21.52945,6.62538 -4.86571,0.99286 -9.3433,1.67431 -9.67092,1.47182 -0.13453,-0.0831 -0.2446,-0.35724 -0.2446,-0.60912 0,-0.25188 -0.18319,-1.16759 -0.40708,-2.03491 -1.37005,-5.30737 -5.2592,-9.31182 -9.88153,-10.17448 -5.60009,-1.04515 -11.54133,3.70593 -13.07415,10.4551 -0.31994,1.40876 -0.43308,1.57835 -1.18249,1.77254 -0.45578,0.1181 -0.90112,0.33191 -0.98963,0.47513 -0.17955,0.29052 -0.16807,0.29073 -2.37866,-0.0436 z m 69.3981,-28.98002 -0.0773,-2.0319 -3.83646,-1.93663 c -14.19803,-7.16711 -29.64873,-11.18406 -45.37604,-11.79707 l -1.5875,-0.0619 -0.0724,-4.73768 -0.0724,-4.73767 3.512,0.16866 c 13.46364,0.64658 27.96778,4.50492 40.52064,10.77915 2.31016,1.15467 4.52364,2.09941 4.91883,2.09941 0.79802,0 0.89777,0.28929 1.73349,5.02708 0.42161,2.39018 0.84939,9.26042 0.57661,9.26042 -0.0892,0 -0.19695,-0.91435 -0.23946,-2.0319 z M 71.479472,165.3368 c 0.08781,-1.24423 0.420087,-3.5694 0.738402,-5.16705 0.570139,-2.86158 0.589708,-2.90482 1.314527,-2.90482 0.404674,0 2.203681,-0.66628 3.997792,-1.48062 8.03163,-3.64552 16.522399,-6.4517 25.090147,-8.29225 4.75414,-1.02131 13.66289,-2.13022 17.13177,-2.13248 l 1.38906,-9e-4 v 4.7625 4.7625 h -1.54501 c -2.28841,0 -9.33462,0.71476 -13.13417,1.33232 -10.283553,1.67144 -21.292334,5.03682 -30.69686,9.384 -1.164167,0.53813 -2.640611,1.20805 -3.280986,1.48872 l -1.16432,0.51031 z M 170.208,151.05687 c -10.80533,-5.49497 -26.55416,-9.68399 -38.88037,-10.34176 -1.45521,-0.0777 -3.27422,-0.20469 -4.04224,-0.28231 l -1.39639,-0.14111 0.0735,-3.61807 0.0735,-3.61807 2.51354,0.0799 c 10.52195,0.33463 23.08709,3.03231 33.67355,7.22955 2.84029,1.12611 3.40402,1.21577 3.98583,0.63396 0.34485,-0.34485 0.57917,-0.1161 1.98791,1.94072 1.54312,2.25301 4.07441,6.79361 4.92539,8.8351 0.22748,0.54571 0.38222,0.97223 0.34389,0.94783 -0.0383,-0.0244 -1.50446,-0.77399 -3.25807,-1.66578 z m -95.368912,0.34049 c 0,-0.50826 2.818579,-6.08826 4.177561,-8.2704 l 1.307467,-2.09942 1.556965,-0.0399 c 1.177271,-0.0301 2.879695,-0.5001 6.980923,-1.92712 9.482799,-3.29955 19.070626,-5.29951 27.516666,-5.7398 1.67349,-0.0872 3.42966,-0.21776 3.9026,-0.29005 l 0.8599,-0.13143 v 3.6853 c 0,4.23866 0.16673,4.00136 -2.81601,4.00799 -1.96072,0.004 -8.00985,0.63566 -11.47149,1.1972 -9.793385,1.58867 -19.615978,4.53721 -29.831769,8.95491 -1.200547,0.51916 -2.182813,0.81287 -2.182813,0.65268 z m 87.309162,-15.69942 c -0.74198,-0.76552 -1.53288,-1.13558 -4.48368,-2.0979 -9.1944,-2.99848 -17.27655,-4.56266 -26.94303,-5.21441 l -4.81787,-0.32484 v -5.91102 -5.91102 l 2.49136,0.0721 c 1.37025,0.0397 2.37027,0.14696 2.22228,0.23842 -0.148,0.0915 0.30847,0.25251 1.01437,0.35788 1.74318,0.26019 6.97427,1.9983 9.43261,3.13412 6.38321,2.94923 14.64662,8.85494 20.02312,14.31017 1.23371,1.25178 2.1798,2.27597 2.10242,2.27597 -0.0774,0 -0.54609,-0.41827 -1.04158,-0.92949 z m -76.429242,-1.09345 c 0.172852,-0.20827 1.2273,-1.26718 2.343219,-2.35313 8.708564,-8.47471 21.467703,-14.89682 31.954463,-16.0838 l 1.12448,-0.12728 v 6.02864 6.02863 l -2.84427,0.17935 c -9.97698,0.62909 -19.846134,2.49938 -29.335183,5.55927 -2.191591,0.70671 -3.436347,1.00164 -3.242709,0.76832 z"
         id="path50305" />
      <path
         style="fill:#435965;stroke-width:0.264583"
         d="m 111.53038,251.02332 c 1.74073,-0.6168 3.38714,-2.25594 4.4732,-4.45343 1.53872,-3.11339 1.51809,-4.34049 -0.27814,-16.54455 -0.8246,-5.60255 -1.90159,-12.98443 -2.3933,-16.40416 -0.49171,-3.41974 -1.07848,-7.34881 -1.30393,-8.73125 -0.22545,-1.38245 -0.40863,-3.22792 -0.40707,-4.10105 0.007,-3.76885 1.74616,-8.02146 4.33623,-10.60155 4.67584,-4.65781 10.95321,-4.53835 15.4741,0.2945 1.70527,1.82294 2.42578,3.01964 3.23608,5.37481 0.60478,1.75784 0.6308,2.19896 0.0836,1.41773 -0.61381,-0.87633 -1.84207,-1.4096 -3.27219,-1.42068 -1.93933,-0.015 -3.5883,1.06344 -4.23475,2.76961 -0.4254,1.12275 -0.35169,6.35908 0.16348,11.61389 0.54693,5.57867 0.35407,7.36156 -1.11099,10.27078 -1.76893,3.51263 -1.78892,3.68287 -1.91039,16.26425 l -0.10983,11.37708 -0.63787,1.09906 c -0.42335,0.72943 -1.02317,1.28559 -1.78349,1.65365 -1.04813,0.50739 -1.58313,0.5528 -6.28759,0.53369 -4.87393,-0.0198 -5.08439,-0.0413 -4.03715,-0.41238 z m 31.83579,0.16869 c -1.09141,-0.0931 -1.73248,-0.1907 -1.42461,-0.21692 0.30787,-0.0262 1.43896,-0.483 2.51354,-1.01508 2.82376,-1.39818 5.79119,-4.44815 7.42505,-7.63154 1.67033,-3.25448 2.2423,-5.28991 2.45353,-8.73125 0.19947,-3.24984 1.06517,-7.16461 2.38935,-10.80496 2.03643,-5.59839 6.73614,-15.54714 10.5817,-22.40025 7.71496,-13.74873 9.70393,-19.85113 9.74468,-29.89792 0.0151,-3.73048 -0.0963,-5.24716 -0.57325,-7.8052 -1.12601,-6.03872 -4.04418,-13.2913 -7.4521,-18.52084 -3.23366,-4.96215 -8.27786,-10.55496 -13.03265,-14.45009 -8.38341,-6.86772 -16.16533,-10.96275 -24.53149,-12.90907 -3.36481,-0.78279 10.24648,0.40571 16.5805,1.44777 5.8879,0.96867 7.90739,1.74284 13.63679,5.22771 7.54054,4.58647 14.50689,10.80532 19.46504,17.37639 4.6059,6.10425 8.11849,13.77524 9.63174,21.03438 0.52351,2.51125 0.60672,3.69059 0.60672,8.59895 0,4.90784 -0.083,6.08398 -0.60454,8.56989 -1.32778,6.32852 -2.92076,10.24076 -7.71714,18.95279 -7.33851,13.32949 -11.78995,23.19777 -13.51909,29.97013 -0.30209,1.1832 -0.65077,3.70347 -0.77482,5.60059 -0.24078,3.68211 -0.76019,5.6501 -2.32202,8.79799 -2.31938,4.67474 -5.75397,7.69309 -9.85347,8.6593 -1.78686,0.42114 -9.0622,0.50215 -13.22346,0.14723 z"
         id="path50303" />
    </g>
    <g
       id="g50535"
       transform="matrix(-0.26860217,0.28000628,-0.28000628,-0.26860217,109.93413,51.187871)">
      <path
         style="fill:#f9d38f;stroke-width:0.264583"
         d="m 108.57471,252.67591 c -1.76228,-0.55076 -3.33706,-1.59593 -4.77473,-3.16897 -2.0522,-2.24544 -2.577,-3.52903 -2.577,-6.30302 v -2.3152 l -0.81187,1e-4 c -2.189195,2.7e-4 -5.028849,-1.41154 -6.72525,-3.34363 -1.556525,-1.77278 -2.203506,-3.60641 -2.229547,-6.31882 -0.02099,-2.18637 0.04988,-2.53441 0.845073,-4.14995 1.065321,-2.16434 2.940771,-3.92719 5.031791,-4.72967 1.234747,-0.47387 2.34896,-0.61613 6.138763,-0.78374 6.0681,-0.26839 9.23565,-1.09548 13.65024,-3.56426 2.84515,-1.5911 5.20192,-3.70584 14.04255,-12.60048 l 8.5105,-8.56248 0.61762,1.18276 c 1.21785,2.33217 2.52131,3.69477 5.76358,6.02511 0.0654,0.047 -4.23449,4.45709 -9.55527,9.80024 -5.32078,5.34314 -10.16339,10.39007 -10.76136,11.2154 -0.59796,0.82532 -1.55549,2.43267 -2.12783,3.57187 -2.0014,3.98361 -2.8412,7.36687 -3.20684,12.91921 -0.13416,2.03729 -0.35173,4.06474 -0.48349,4.50544 -0.96786,3.23734 -3.58056,5.75936 -6.84811,6.61045 -1.81528,0.47282 -3.00857,0.47537 -4.49882,0.01 z m 100.39087,-90.61309 c -8.25524,-4.84879 -18.11176,-14.20843 -24.40084,-23.17077 -1.12327,-1.60073 -2.34369,-3.52001 -2.71204,-4.26506 l -0.66973,-1.35464 0.50125,-1.0147 c 0.65722,-1.33042 1.71056,-1.7808 3.07103,-1.31309 1.30905,0.45003 5.77951,3.44887 9.0577,6.07601 7.24696,5.80773 15.57976,15.20829 19.18537,21.64378 0.77905,1.39049 0.82369,1.59398 0.53894,2.45677 -0.32484,0.98428 -1.00087,1.57165 -2.11532,1.83792 -0.48321,0.11544 -1.14515,-0.12607 -2.45636,-0.89622 z"
         id="path50543" />
      <path
         style="fill:#c46357;stroke-width:0.264583"
         d="m 214.99381,175.41961 c -8.20802,-2.13838 -17.77153,-8.49505 -27.66452,-18.38804 -6.70514,-6.70514 -11.06454,-12.27355 -14.61536,-18.66869 -4.65274,-8.37971 -5.70984,-15.48831 -2.76274,-18.57827 1.45566,-1.52621 2.89781,-2.02975 5.752,-2.00834 4.09108,0.0307 9.14138,1.80935 14.82084,5.21976 16.09071,9.66218 31.28049,27.21398 35.35627,40.85418 0.93659,3.13444 0.99403,6.76204 0.13514,8.53431 -1.68656,3.48011 -5.39433,4.50114 -11.02163,3.03509 z m -2.33871,-12.98819 c 0.31443,-0.20327 0.7114,-0.79291 0.88216,-1.3103 0.28475,-0.86279 0.24011,-1.06628 -0.53894,-2.45677 -3.60561,-6.43549 -11.93841,-15.83605 -19.18537,-21.64378 -3.27819,-2.62714 -7.74865,-5.62598 -9.0577,-6.07601 -1.36047,-0.46771 -2.41381,-0.0173 -3.07103,1.31309 l -0.50125,1.0147 0.66973,1.35464 c 0.36835,0.74505 1.58877,2.66433 2.71204,4.26506 6.28908,8.96234 16.1456,18.32198 24.40084,23.17077 1.87113,1.09903 2.46747,1.15861 3.68952,0.3686 z"
         id="path50541" />
      <path
         style="fill:#97432f;stroke-width:0.264583"
         d="m 154.63834,197.63666 c -3.10073,-0.7589 -5.59389,-2.5936 -6.9053,-5.08158 -0.92901,-1.76248 -1.66318,-4.72267 -1.66318,-6.70593 0,-1.14727 0.11962,-1.47681 0.77339,-2.13058 0.95498,-0.95498 2.08871,-1.01716 3.07515,-0.16866 0.59941,0.51559 0.7579,0.9737 1.07508,3.10752 0.49807,3.35079 1.24742,4.59878 3.41075,5.68045 1.49538,0.74769 1.76406,0.79291 4.63021,0.77929 5.30518,-0.0252 10.25185,-1.51567 18.04785,-5.43792 1.70438,-0.85749 3.39189,-1.55908 3.75001,-1.55908 0.35812,0 1.01744,0.30824 1.46517,0.68498 0.64037,0.53883 0.81405,0.89497 0.81405,1.66922 0,1.27277 -0.31964,1.6593 -2.27943,2.7564 -4.83675,2.70765 -11.57096,5.27255 -16.41525,6.25219 -3.06208,0.61923 -7.58591,0.69034 -9.7785,0.1537 z m 26.31509,-29.30819 c -2.89168,-2.16414 -7.48616,-6.63242 -9.55528,-9.29282 -3.22002,-4.1402 -3.86032,-4.70065 -5.78229,-5.06121 -0.5175,-0.0971 -1.43769,-0.0427 -2.04485,0.12074 -2.00445,0.53974 -2.84855,1.58891 -5.2375,6.50988 -2.67052,5.50099 -3.18291,6.04559 -4.98111,5.29426 -2.10139,-0.87802 -1.97763,-2.09414 0.78855,-7.74854 2.60924,-5.33361 3.73784,-6.74837 6.44764,-8.08239 1.59464,-0.78504 1.95513,-0.85759 4.26112,-0.85759 2.2061,0 2.71636,0.0922 4.1066,0.74193 1.93043,0.9022 2.82431,1.72861 5.20733,4.81432 2.21178,2.86398 6.36665,7.13921 8.55101,8.79872 2.87032,2.18066 3.57285,2.97341 3.56346,4.02112 -0.009,1.03436 -0.35427,1.61897 -1.23097,2.0859 -1.09597,0.58371 -1.84708,0.33706 -4.09371,-1.34432 z"
         id="path50539" />
      <path
         style="fill:#763e39;stroke-width:0.264583"
         d="m 153.60308,206.21742 c -14.41319,-1.88483 -19.03177,-14.08885 -13.22157,-34.93643 4.50721,-16.17234 15.96851,-36.78388 27.1998,-48.915 l 1.44401,-1.55971 -0.36523,1.21358 c -1.49092,4.95395 1.67213,13.77194 8.23497,22.9576 4.50437,6.30453 12.13662,14.36246 18.255,19.27315 10.95648,8.79381 21.40191,13.1924 27.19094,11.45016 l 1.21358,-0.36523 -1.55971,1.44401 c -2.17644,2.015 -4.66023,4.0379 -8.05939,6.56391 -20.1994,15.01069 -45.9131,24.75958 -60.3324,22.87396 z m 10.81376,-8.73446 c 4.84429,-0.97964 11.5785,-3.54454 16.41525,-6.25219 1.95979,-1.0971 2.27943,-1.48363 2.27943,-2.7564 0,-0.77425 -0.17368,-1.13039 -0.81405,-1.66922 -0.44773,-0.37674 -1.10705,-0.68498 -1.46517,-0.68498 -0.35812,0 -2.04563,0.70159 -3.75001,1.55908 -7.796,3.92225 -12.74267,5.41271 -18.04785,5.43792 -2.86615,0.0136 -3.13483,-0.0316 -4.63021,-0.77929 -2.16333,-1.08167 -2.91268,-2.32966 -3.41075,-5.68045 -0.31718,-2.13382 -0.47567,-2.59193 -1.07508,-3.10752 -0.98644,-0.8485 -2.12017,-0.78632 -3.07515,0.16866 -0.65377,0.65377 -0.77339,0.98331 -0.77339,2.13058 0,1.98326 0.73417,4.94345 1.66318,6.70593 1.31141,2.48798 3.80457,4.32268 6.9053,5.08158 2.19259,0.53664 6.71642,0.46553 9.7785,-0.1537 z m 20.6303,-27.81017 c 0.8767,-0.46693 1.22169,-1.05154 1.23097,-2.0859 0.009,-1.04771 -0.69314,-1.84046 -3.56346,-4.02112 -2.18436,-1.65951 -6.33923,-5.93474 -8.55101,-8.79872 -2.38302,-3.08571 -3.2769,-3.91212 -5.20733,-4.81432 -1.39024,-0.64975 -1.9005,-0.74193 -4.1066,-0.74193 -2.30599,0 -2.66648,0.0726 -4.26112,0.85759 -2.7098,1.33402 -3.8384,2.74878 -6.44764,8.08239 -2.76618,5.6544 -2.88994,6.87052 -0.78855,7.74854 1.7982,0.75133 2.31059,0.20673 4.98111,-5.29426 2.38895,-4.92097 3.23305,-5.97014 5.2375,-6.50988 0.60716,-0.16349 1.52735,-0.21783 2.04485,-0.12074 1.92197,0.36056 2.56227,0.92101 5.78229,5.06121 3.29547,4.23719 10.90534,10.94494 12.41694,10.94494 0.35978,0 0.9142,-0.13851 1.23205,-0.3078 z"
         id="path50537" />
    </g>
  </g>
</svg>
