<?xml version="1.0" encoding="UTF-8" standalone="no"?>
<!-- Created with Inkscape (http://www.inkscape.org/) -->

<svg
   width="300"
   height="300"
   viewBox="0 0 79.374998 79.374998"
   version="1.1"
   id="svg54694"
   inkscape:version="1.1.1 (3bf5ae0d25, 2021-09-20)"
   sodipodi:docname="icon-carbs.svg"
   xmlns:inkscape="http://www.inkscape.org/namespaces/inkscape"
   xmlns:sodipodi="http://sodipodi.sourceforge.net/DTD/sodipodi-0.dtd"
   xmlns="http://www.w3.org/2000/svg"
   xmlns:svg="http://www.w3.org/2000/svg">
  <sodipodi:namedview
     id="namedview54696"
     pagecolor="#ffffff"
     bordercolor="#666666"
     borderopacity="1.0"
     inkscape:pageshadow="2"
     inkscape:pageopacity="0.0"
     inkscape:pagecheckerboard="0"
     inkscape:document-units="mm"
     showgrid="false"
     units="px"
     inkscape:zoom="0.56630543"
     inkscape:cx="-528.86655"
     inkscape:cy="22.072894"
     inkscape:window-width="2560"
     inkscape:window-height="1377"
     inkscape:window-x="1072"
     inkscape:window-y="468"
     inkscape:window-maximized="1"
     inkscape:current-layer="layer1" />
  <defs
     id="defs54691" />
  <g
     inkscape:label="Layer 1"
     inkscape:groupmode="layer"
     id="layer1">
    <g
       id="g49366"
       transform="matrix(0.46492794,0,0,0.46492794,-15.223724,-17.798429)">
      <path
         style="fill:#f9d28e;stroke-width:0.264583"
         d="m 58.445478,182.71093 c -5.817915,-1.2742 -10.66074,-5.65847 -12.769254,-11.56018 l -0.693358,-1.94069 -0.167612,-12.03855 c -0.15836,-11.37406 -0.199165,-12.13451 -0.739268,-13.77741 -0.620937,-1.88878 -2.191051,-4.4851 -3.348577,-5.53717 -1.720549,-1.56379 -3.798962,-5.02261 -4.932083,-8.20779 -0.590051,-1.65862 -0.612845,-2.0515 -0.704489,-12.14256 -0.108713,-11.97051 -0.01195,-12.81652 1.924291,-16.8236 2.484627,-5.141991 6.477874,-8.583942 12.169934,-10.489795 l 1.852083,-0.620127 20.637499,-0.07799 c 23.020056,-0.087 22.716703,-0.106684 26.348236,1.710098 3.43582,1.71887 6.05918,4.734148 7.61481,8.752441 l 0.69054,1.783703 0.0847,11.88378 c 0.0929,13.03998 -5.3e-4,14.15944 -1.48573,17.80912 -0.87098,2.14025 -1.93235,3.75126 -4.17913,6.34336 -1.792448,2.06794 -2.737796,3.53936 -3.456331,5.3797 -0.407394,1.04344 -0.480419,2.68582 -0.623104,14.01424 -0.142002,11.27423 -0.218601,13.00898 -0.630891,14.2875 -1.834703,5.68948 -6.018948,9.66898 -11.692037,11.11991 -1.879259,0.48064 -2.91782,0.5201 -13.176377,0.50073 -8.148457,-0.0154 -11.562247,-0.11432 -12.723822,-0.36872 z m 8.015136,-10.39105 c 1.210842,-1.64168 0.682591,-2.70143 -2.586244,-5.18837 -2.512085,-1.9112 -2.808647,-2.06636 -3.68359,-1.92716 -1.60953,0.25606 -2.567858,1.92708 -1.9815,3.4551 0.211642,0.55153 4.357427,3.78068 5.436247,4.23429 0.984388,0.4139 2.281584,0.14947 2.815087,-0.57386 z m 14.059304,-9.96045 c 1.625931,-0.49363 3.181414,-1.10129 3.456631,-1.35035 0.730776,-0.66135 0.902009,-1.80477 0.412136,-2.75208 -0.824971,-1.59532 -1.690936,-1.6822 -5.497018,-0.5515 -2.787909,0.82823 -3.537283,1.27397 -3.948038,2.3484 -0.509945,1.33387 0.740058,3.15682 2.189075,3.19244 0.237038,0.006 1.761284,-0.39329 3.387214,-0.88691 z m -21.262636,-7.84061 c 0.980609,-0.37283 4.482294,-3.81529 5.00815,-4.92345 0.914464,-1.92709 -0.956235,-4.01442 -2.926454,-3.26534 -1.013983,0.38552 -4.60887,3.92337 -5.057431,4.97719 -0.531077,1.24769 -0.06217,2.60881 1.068171,3.10066 1.021471,0.44447 1.029123,0.44492 1.907564,0.11094 z m 20.961665,-18.18228 c 0.188222,-0.25519 0.408204,-0.72676 0.488855,-1.04794 0.309147,-1.23115 -0.279088,-2.02328 -3.074033,-4.13954 -2.515653,-1.90479 -2.822694,-2.06514 -3.69009,-1.92716 -1.675286,0.26649 -2.656811,2.14181 -1.880354,3.59264 0.30971,0.5787 4.678539,3.86914 5.579895,4.20258 0.794025,0.29373 2.114442,-0.0552 2.575727,-0.68058 z m -24.088573,-8.4073 c 1.295862,-1.49141 0.660748,-2.75152 -2.630809,-5.2197 -1.968792,-1.47631 -2.556656,-1.78594 -3.390737,-1.78594 -1.696006,0 -2.906606,1.95932 -2.119413,3.4302 0.267723,0.50024 2.770888,2.57098 4.63523,3.83447 1.298502,0.88002 2.599551,0.78389 3.505729,-0.25903 z m 39.773995,-1.42904 c 0.900915,-0.90091 0.900372,-0.89452 0.358939,-4.22091 -0.657172,-4.03745 -1.140835,-4.79527 -3.060475,-4.79527 -0.764979,0 -1.12401,0.17597 -1.660921,0.81405 -0.818984,0.9733 -0.816761,0.90799 -0.161367,4.7422 0.442542,2.58897 0.622027,3.13148 1.203624,3.63802 0.998577,0.8697 2.344605,0.79751 3.3202,-0.17809 z m -25.684933,-8.4649 c 1.382447,-0.42108 2.698435,-0.84017 2.924418,-0.93132 0.496271,-0.20017 1.308915,-1.5172 1.308915,-2.12132 0,-0.82325 -0.77007,-1.92255 -1.582502,-2.25907 -0.722051,-0.29909 -1.16304,-0.23743 -3.915082,0.54737 -3.618881,1.03201 -4.291999,1.52676 -4.291999,3.15472 0,0.79643 0.171577,1.25397 0.649433,1.73182 0.854453,0.85446 1.775674,0.83151 4.906817,-0.1222 z m -18.860921,-9.87785 c 1.232599,-1.20054 2.416227,-2.51892 2.630286,-2.92972 0.80957,-1.55366 -0.385283,-3.35413 -2.225916,-3.35413 -0.797487,0 -1.227988,0.29619 -3.172641,2.18281 -2.672799,2.59304 -3.158088,3.48634 -2.608524,4.80163 0.448526,1.07347 1.041855,1.46335 2.243482,1.47418 0.764632,0.007 1.212712,-0.30411 3.133313,-2.17477 z m 36.996903,-0.3187 c 0.888852,-0.88885 0.907693,-2.60015 0.03716,-3.37555 -0.804177,-0.7163 -5.640049,-2.58597 -6.693839,-2.58801 -1.925947,-0.004 -2.98254,2.64747 -1.589463,3.98826 0.832754,0.80149 5.320926,2.57282 6.592493,2.60183 0.733459,0.0167 1.179314,-0.1522 1.653645,-0.62653 z"
         id="path49372" />
      <path
         style="fill:#a26d3d;stroke-width:0.264583"
         d="m 84.449909,182.57069 c 5.604489,-1.48033 9.770041,-5.47473 11.587805,-11.11168 0.41229,-1.27852 0.488889,-3.01327 0.630891,-14.2875 0.142685,-11.32842 0.21571,-12.9708 0.623104,-14.01424 0.718535,-1.84034 1.663883,-3.31176 3.456331,-5.3797 2.24678,-2.5921 3.30815,-4.20311 4.17913,-6.34336 1.48525,-3.64968 1.57864,-4.76914 1.48573,-17.80912 l -0.0847,-11.88378 -0.69054,-1.783703 c -2.01842,-5.213692 -5.752342,-8.644861 -10.865375,-9.984394 l -1.931006,-0.505892 13.096871,0.02146 c 7.20328,0.01181 12.84539,0.07091 12.53801,0.131349 -0.30737,0.06044 -0.89998,0.465936 -1.3169,0.901107 -1.21507,1.268257 -1.05703,2.266316 0.86777,5.480293 0.89419,1.4931 2.00132,3.752549 2.46028,5.021 0.96128,2.65673 1.31427,3.12834 2.63841,3.52506 1.48864,0.44601 2.79496,-0.20564 3.46961,-1.73081 0.8172,-1.84742 1.21271,-5.132105 0.83486,-6.933524 -0.59576,-2.840269 -2.49834,-5.686276 -4.11385,-6.153773 -0.54951,-0.159014 2.60286,-0.243577 9.08015,-0.243577 6.26717,0 9.62157,0.0872 9.1066,0.236722 -1.14583,0.332704 -1.74103,1.096777 -1.88264,2.416796 -0.10878,1.014102 0.0351,1.392758 1.34884,3.549194 0.80883,1.327687 1.83457,3.35175 2.27941,4.497922 1.39901,3.60468 1.5201,3.80422 2.57808,4.24847 0.86076,0.36144 1.12407,0.36814 2.02386,0.0515 0.5689,-0.20018 1.25086,-0.66163 1.51547,-1.02543 1.40409,-1.93046 1.68829,-7.394196 0.51219,-9.846829 -0.81458,-1.698708 -2.52715,-3.585955 -3.54555,-3.907185 -0.60878,-0.192025 0.2873,-0.233324 3.26165,-0.150322 7.0923,0.197916 10.71839,1.612163 14.95956,5.834542 2.70289,2.690916 4.15568,5.133654 5.20169,8.746224 0.58867,2.03307 0.60854,2.43863 0.60854,12.42044 0,9.98182 -0.0199,10.38738 -0.60854,12.42045 -0.82481,2.84861 -2.37861,5.72562 -4.29494,7.95247 -2.01077,2.3366 -3.21636,4.29147 -3.99771,6.48229 -0.59852,1.6782 -0.61725,2.02372 -0.77457,14.2875 -0.13692,10.67402 -0.22865,12.80366 -0.60879,14.13366 -1.40085,4.90117 -5.21032,8.8318 -10.22065,10.54574 l -1.7198,0.58831 -32.80833,0.0557 -32.80833,0.0557 z m 33.374221,-39.5779 c 1.05667,-0.88913 1.13104,-2.35644 0.17574,-3.46746 l -0.63831,-0.74236 h -3.43442 c -3.06208,0 -3.49815,0.0574 -4.02226,0.52917 -0.87119,0.78423 -1.12121,1.64741 -0.7782,2.68673 0.45504,1.37877 1.25225,1.65615 4.79485,1.6683 2.94423,0.0101 3.12659,-0.0214 3.9026,-0.67438 z m 32.04671,-0.0426 c 1.37635,-1.23039 0.89618,-3.58565 -0.82943,-4.06837 -0.35068,-0.0981 -5.67976,-0.19023 -11.84241,-0.20473 -9.7348,-0.0229 -11.32122,0.0289 -12.09215,0.3947 -1.14046,0.54118 -1.65099,1.87419 -1.16613,3.04475 0.63878,1.54215 0.61217,1.53907 13.41256,1.55066 l 11.70364,0.0106 0.81392,-0.7276 z m -86.225313,29.94358 c -1.07882,-0.45361 -5.224605,-3.68276 -5.436247,-4.23429 -0.586358,-1.52802 0.37197,-3.19904 1.9815,-3.4551 0.874943,-0.1392 1.171505,0.016 3.68359,1.92716 1.793426,1.36444 2.816159,2.33242 2.976886,2.8175 0.67797,2.04616 -1.212583,3.78278 -3.205729,2.94473 z m 12.350032,-10.04149 c -1.366078,-0.74189 -1.524367,-2.78836 -0.300879,-3.88997 0.568595,-0.51196 5.503839,-2.05535 6.572314,-2.05535 2.105194,0 3.238214,2.71873 1.709555,4.10215 -0.498489,0.45112 -6.023973,2.25741 -6.843845,2.23726 -0.237037,-0.006 -0.748752,-0.18317 -1.137145,-0.39409 z m -18.645841,-8.44437 c -1.130343,-0.49185 -1.599248,-1.85297 -1.068171,-3.10066 0.448561,-1.05382 4.043448,-4.59167 5.057431,-4.97719 0.905382,-0.34423 1.804317,-0.12221 2.474959,0.61127 0.800489,0.87548 0.931114,1.64335 0.451495,2.65407 -0.525856,1.10816 -4.027541,4.55062 -5.00815,4.92345 -0.878441,0.33398 -0.886093,0.33353 -1.907564,-0.11094 z M 77.64322,137.01712 c -0.901356,-0.33344 -5.270185,-3.62388 -5.579895,-4.20258 -0.776457,-1.45083 0.205068,-3.32615 1.880354,-3.59264 0.867396,-0.13798 1.174437,0.0224 3.69009,1.92716 2.794945,2.11626 3.38318,2.90839 3.074033,4.13954 -0.349332,1.39118 -1.785993,2.2015 -3.064582,1.72852 z m -25.018575,-8.82885 c -1.864342,-1.26349 -4.367507,-3.33423 -4.63523,-3.83447 -0.441989,-0.82586 -0.288913,-1.76722 0.425417,-2.61615 0.544383,-0.64696 0.892083,-0.81405 1.693996,-0.81405 0.834081,0 1.421945,0.30963 3.390737,1.78594 3.291557,2.46818 3.926671,3.72829 2.630809,5.2197 -0.906178,1.04292 -2.207227,1.13905 -3.505729,0.25903 z m 39.959524,-1.50998 c -0.581597,-0.50654 -0.761082,-1.04905 -1.203624,-3.63802 -0.655394,-3.83421 -0.657617,-3.7689 0.161367,-4.7422 1.168675,-1.38889 3.368854,-1.00788 4.023473,0.69676 0.282165,0.73476 1.112383,5.42282 1.112383,6.28137 0,0.24783 -0.348028,0.79863 -0.773399,1.224 -0.975595,0.9756 -2.321623,1.04779 -3.3202,0.17809 z m -27.27155,-8.52079 c -0.477856,-0.47785 -0.649433,-0.93539 -0.649433,-1.73182 0,-1.62796 0.673118,-2.12271 4.291999,-3.15472 2.752042,-0.7848 3.193031,-0.84646 3.915082,-0.54737 0.812432,0.33652 1.582502,1.43582 1.582502,2.25907 0,0.60412 -0.812644,1.92115 -1.308915,2.12132 -1.444575,0.58266 -5.582359,1.69742 -6.309881,1.69994 -0.575818,0.002 -1.092473,-0.21754 -1.521354,-0.64642 z m -18.467452,-8.11688 c -0.268297,-0.15596 -0.656847,-0.68812 -0.863447,-1.18258 -0.549564,-1.31529 -0.06428,-2.20859 2.608524,-4.80163 1.944653,-1.88662 2.375154,-2.18281 3.172641,-2.18281 1.840633,0 3.035486,1.80047 2.225916,3.35413 -0.214059,0.4108 -1.397687,1.72918 -2.630286,2.92972 -1.920601,1.87066 -2.368681,2.18167 -3.133313,2.17477 -0.490723,-0.004 -1.111739,-0.13565 -1.380035,-0.2916 z m 36.372967,-2.58481 c -1.363684,-0.54261 -2.762668,-1.25917 -3.108854,-1.59236 -1.393077,-1.34079 -0.336484,-3.99198 1.589463,-3.98826 1.05379,0.002 5.889662,1.87171 6.693839,2.58801 0.870529,0.7754 0.851688,2.4867 -0.03716,3.37555 -0.906909,0.90691 -2.123545,0.81622 -5.137284,-0.38294 z"
         id="path49370" />
      <path
         style="fill:#734c2c;stroke-width:0.264583"
         d="m 110.12681,143.27308 c -0.85888,-0.46643 -1.39658,-1.89684 -1.05193,-2.79835 0.13319,-0.34838 0.50669,-0.87155 0.83,-1.16259 0.52411,-0.4718 0.96018,-0.52917 4.02226,-0.52917 h 3.43442 l 0.63831,0.74236 c 0.9553,1.11102 0.88093,2.57833 -0.17574,3.46746 -0.77601,0.65297 -0.95837,0.68448 -3.9026,0.67438 -2.1792,-0.007 -3.29647,-0.1235 -3.79472,-0.39409 z m 14.83175,0.008 c -1.64897,-0.8962 -1.56083,-3.3982 0.14829,-4.20923 0.77093,-0.36583 2.35735,-0.41761 12.09215,-0.3947 6.16265,0.0145 11.49173,0.10664 11.84241,0.20474 1.72561,0.48271 2.20578,2.83798 0.82943,4.06837 l -0.81392,0.7276 -11.70364,-0.0106 c -9.59258,-0.009 -11.82829,-0.0783 -12.39472,-0.38619 z m -2.21944,-38.86366 c -1.1043,-0.48128 -1.30966,-0.79119 -2.25451,-3.40242 -0.45746,-1.264255 -1.56336,-3.520272 -2.45755,-5.013371 -1.96035,-3.273338 -2.09891,-4.24001 -0.79471,-5.544216 0.7465,-0.746505 1.02867,-0.843654 2.77211,-0.954438 2.67457,-0.16995 3.94034,0.221002 5.09931,1.574994 2.06278,2.409897 2.81054,5.113935 2.32859,8.420578 -0.42784,2.935413 -1.11627,4.406183 -2.29246,4.897623 -1.11679,0.46663 -1.37364,0.4689 -2.40078,0.0213 z m 22.95497,-0.0165 c -0.90538,-0.40444 -1.09061,-0.72366 -2.44536,-4.21428 -0.44484,-1.146169 -1.47058,-3.170232 -2.27941,-4.497919 -1.33421,-2.190069 -1.45883,-2.523606 -1.34357,-3.595873 0.1592,-1.481062 1.01889,-2.285107 2.71523,-2.53949 1.74333,-0.261428 4.06337,0.03579 4.85664,0.622175 1.13656,0.84015 2.58859,2.965746 3.06873,4.492255 0.57588,1.83086 0.41888,5.661952 -0.31044,7.575222 -0.78702,2.06466 -2.51356,2.93887 -4.26182,2.15791 z"
         id="path49368" />
    </g>
    <g
       id="g49502"
       transform="matrix(-0.32881321,0.18230915,-0.18230915,-0.32881321,137.27037,52.788173)">
      <path
         style="fill:#f3c34d;stroke-width:0.264583"
         d="m 164.44122,132.56073 c -7.96867,-2.52623 -17.60889,-11.69512 -29.75111,-28.29654 -3.33061,-4.553762 -4.34858,-6.180825 -4.97143,-7.946069 -2.59576,-7.356684 0.82882,-13.304252 10.64546,-18.488262 5.69618,-3.008061 11.51805,-4.735936 16.96184,-5.034108 l 3.3358,-0.182713 -0.52587,1.190625 c -0.36548,0.827458 -0.53023,1.795904 -0.54014,3.175 -0.0127,1.773308 0.66811,4.559376 6.40115,26.193747 7.49428,28.28065 7.27168,27.49125 8.02931,28.47435 0.33431,0.43381 0.39819,0.61173 0.14828,0.41302 -0.32608,-0.25927 -0.57506,-0.2763 -0.96767,-0.0662 -0.88756,0.47501 -4.21455,1.07813 -5.80635,1.05259 -0.82723,-0.0133 -2.1589,-0.23173 -2.95927,-0.48546 z m 25.47554,-0.0198 c -1.04986,-0.27515 -2.14427,-0.62627 -2.43204,-0.78027 -0.51514,-0.2757 -0.51562,-0.29731 -0.0311,-1.4034 0.27066,-0.61787 3.48594,-12.43433 7.14507,-26.25881 5.61036,-21.196412 6.65426,-25.425655 6.66131,-26.987495 0.008,-1.758016 -0.4807,-3.630795 -1.20807,-4.630208 -0.23738,-0.32615 -0.21813,-0.344054 0.10802,-0.100476 0.21828,0.163018 1.88516,0.365093 3.70417,0.449056 6.62393,0.305753 14.36516,2.997782 20.61807,7.169981 5.99186,3.99802 8.51267,8.476874 7.70409,13.688305 -0.40514,2.611173 -1.56785,4.907685 -4.66813,9.220217 -5.96843,8.30217 -11.12726,14.50697 -16.42588,19.75628 -2.08132,2.06194 -3.69589,3.7986 -3.58795,3.85924 0.10794,0.0606 0.0395,0.0709 -0.15211,0.0229 -0.1916,-0.0481 -1.26316,0.60299 -2.38125,1.4468 -6.10743,4.6092 -10.15486,5.83193 -15.05422,4.54792 z M 177.9892,87.870671 c -0.77054,-0.275007 -1.8421,-0.854884 -2.38125,-1.288618 -1.90587,-1.533231 -2.32971,-2.509959 -4.30383,-9.917914 -1.02033,-3.828835 -1.97231,-7.400041 -2.1155,-7.936015 -0.18383,-0.68807 -0.43373,-1.007991 -0.85023,-1.088448 -0.32443,-0.06267 5.12513,-0.118296 12.11013,-0.123608 6.98499,-0.0053 12.4156,0.07001 12.068,0.16738 -0.58179,0.162973 -0.79382,0.789046 -2.66885,7.880427 -2.12149,8.023518 -2.69361,9.463073 -4.30074,10.821457 -2.0927,1.768803 -5.10483,2.360785 -7.55773,1.485339 z"
         id="path49508" />
      <path
         style="fill:#edae4a;stroke-width:0.264583"
         d="m 179.06401,134.90389 c -2.28479,-0.44254 -4.50092,-2.02854 -5.47997,-3.92182 -0.22568,-0.43642 -3.46869,-12.31923 -7.2067,-26.40626 -7.61,-28.678981 -7.47952,-28.013102 -6.09285,-31.094852 1.34095,-2.98015 4.48995,-5.429863 7.33075,-5.702829 l 1.28635,-0.1236 0.27369,1.024046 c 0.15053,0.563227 1.10851,4.156729 2.12884,7.985564 2.01168,7.548938 2.41794,8.460404 4.46783,10.023901 3.6811,2.80767 9.00116,1.762683 11.33947,-2.22734 0.44639,-0.761711 1.43799,-3.981939 2.74111,-8.9018 l 2.04172,-7.708362 1.28859,0.01275 c 1.4424,0.01426 3.70118,1.012558 4.95303,2.189043 1.03,0.967994 2.10454,2.587062 2.66527,4.015923 1.03767,2.644187 1.00817,2.787059 -6.19965,30.030206 -3.65759,13.82448 -6.91943,25.73146 -7.24853,26.45995 -1.41152,3.12449 -4.96765,4.98879 -8.28895,4.34549 z"
         id="path49506" />
      <path
         style="fill:#f0b400;stroke-width:0.264583"
         d="m 123.19809,134.88136 c -5.57122,-0.89654 -9.91846,-7.25067 -9.05406,-13.23384 0.34841,-2.41158 0.86765,-3.80037 3.19785,-8.55323 2.82131,-5.75456 6.0476,-10.44088 10.82232,-15.719876 l 1.29555,-1.432372 0.72047,1.522955 c 1.27684,2.699013 9.17031,13.317583 14.26538,19.190293 2.79153,3.21757 6.51867,7.04629 8.67183,8.90814 l 1.50849,1.30441 -13.81162,4.00541 c -7.59639,2.20297 -14.3474,4.05755 -15.00224,4.12128 -0.65484,0.0637 -1.83113,0.0128 -2.61397,-0.11317 z m 113.47438,0.0378 c -0.97316,-0.16804 -18.31458,-5.15933 -27.19421,-7.82718 l -2.1911,-0.65831 3.79467,-3.75928 c 5.27032,-5.22118 10.39505,-11.37729 16.34477,-19.63428 2.44028,-3.386614 4.48337,-6.964222 4.48337,-7.850743 0,-1.042535 0.63678,-0.599308 3.24901,2.26146 4.99402,5.469173 8.18367,10.153123 11.19331,16.437203 1.93385,4.03785 2.45381,5.48813 2.78195,7.75948 0.87259,6.03983 -3.37184,12.19581 -9.13693,13.25188 -1.71747,0.31462 -1.62058,0.31404 -3.32484,0.0198 z"
         id="path49504" />
    </g>
    <g
       id="g49638"
       transform="matrix(-0.53825739,-0.01337551,-0.01337551,0.53825739,114.8162,-39.666589)">
      <path
         style="fill:#ecae4c;stroke-width:0.264583"
         d="m 97.865242,143.41189 c -1.435603,-1.63506 -2.041604,-3.26003 -2.037453,-5.46335 0.0046,-2.44747 0.782047,-4.15904 2.895634,-6.37492 2.294457,-2.40549 2.241137,-3.59707 -0.283845,-6.34362 -2.021086,-2.19843 -2.603746,-3.55873 -2.59865,-6.06688 0.005,-2.4765 0.611481,-3.83876 2.768592,-6.21905 1.92878,-2.12833 2.17499,-3.07195 1.223595,-4.68945 -0.365575,-0.62152 -0.97367,-1.41869 -1.35132,-1.77147 -0.37765,-0.35279 -0.686636,-0.72132 -0.686636,-0.81896 0,-0.0976 1.212718,-0.3245 2.694931,-0.50414 2.68809,-0.32579 2.6961,-0.32506 3.15937,0.28911 0.79497,1.05391 1.37179,3.32232 1.20434,4.73619 -0.27949,2.35984 -0.75816,3.38542 -2.59515,5.56031 -2.668968,3.15988 -2.679419,4.04896 -0.0808,6.87558 1.97826,2.15184 2.59847,3.56834 2.59847,5.93459 0,2.37409 -0.69072,3.95776 -2.59853,5.95791 -0.87597,0.91836 -1.54968,1.91228 -1.75047,2.58244 -0.30077,1.00388 -0.26976,1.20528 0.39469,2.56337 l 0.72112,1.4739 -1.37099,1.58254 c -0.754034,0.8704 -1.406393,1.58255 -1.449679,1.58255 -0.04329,0 -0.429022,-0.39899 -0.857189,-0.88665 z m 9.232688,-0.31866 c -1.27528,-1.4488 -1.89444,-3.13022 -1.89444,-5.14469 0,-2.27975 0.62113,-3.71037 2.54004,-5.85038 2.5789,-2.87606 2.62111,-4.00965 0.24789,-6.65736 -2.01636,-2.24958 -2.78793,-3.93275 -2.78793,-6.08187 0,-2.37182 0.61117,-3.93413 2.23158,-5.70456 0.75646,-0.82649 1.57585,-1.79709 1.82086,-2.15689 0.52289,-0.76786 0.58793,-2.02237 0.11475,-2.2133 -0.25839,-0.10426 -0.25635,-0.13802 0.009,-0.15434 0.52047,-0.032 -0.0524,-0.95639 -1.70276,-2.74795 -1.33112,-1.44495 -1.67866,-2.02785 -1.21696,-2.04115 0.10914,-0.003 1.27,-0.16981 2.57969,-0.37036 l 2.38125,-0.36465 0.68508,0.64371 c 1.5272,1.43497 2.44027,4.3659 2.07667,6.66606 -0.28232,1.78595 -1.0716,3.23416 -2.76874,5.08022 -2.34755,2.55354 -2.32708,3.88025 0.0999,6.47468 3.60087,3.84934 3.63239,8.3246 0.0853,12.11052 -0.71279,0.76078 -1.43143,1.6433 -1.59698,1.96116 -0.49996,0.95997 -0.35222,2.31545 0.36808,3.37686 l 0.66906,0.98592 -1.37672,1.69684 c -0.7572,0.93326 -1.40535,1.69684 -1.44033,1.69684 -0.035,0 -0.54103,-0.54239 -1.12456,-1.20531 z m 9.5024,0.26134 c -1.45539,-1.6576 -1.99798,-3.13491 -1.98552,-5.40603 0.0139,-2.52909 0.64372,-3.98335 2.62478,-6.06027 2.47847,-2.59842 2.49132,-3.88563 0.0655,-6.56241 -2.13795,-2.35915 -2.70238,-3.64903 -2.6967,-6.16274 0.006,-2.48942 0.66717,-3.96125 2.82142,-6.27718 1.425,-1.53194 1.53199,-1.73572 1.53199,-2.91769 0,-1.39207 -0.27769,-1.91847 -2.0016,-3.79426 -1.02193,-1.11196 -2.1277,-2.84031 -1.92051,-3.00181 0.0471,-0.0367 1.09296,-0.20488 2.3241,-0.37369 l 2.23845,-0.30692 1.27912,1.25817 c 1.88057,1.84977 2.71475,3.71405 2.69397,6.02067 -0.0213,2.36651 -0.71858,3.96936 -2.5825,5.93664 -2.6101,2.75483 -2.63576,4.03095 -0.13651,6.78877 2.08629,2.30215 2.68936,3.66105 2.68936,6.06001 0,2.39896 -0.60307,3.75786 -2.68936,6.06 -2.14125,2.36278 -2.37932,3.62553 -1.04157,5.5246 0.59376,0.84291 0.53792,0.97425 -1.3046,3.06841 l -1.01996,1.15925 z m 9.16843,-0.30113 c -1.35945,-1.85778 -1.81776,-3.14309 -1.8203,-5.1049 -0.003,-2.27269 0.64487,-3.72192 2.65534,-5.94039 2.47628,-2.73248 2.50295,-4.06466 0.13115,-6.55124 -3.71262,-3.8923 -3.79484,-8.14182 -0.23436,-12.11255 2.54774,-2.84129 2.58728,-4.09216 0.21109,-6.67686 -1.38548,-1.50706 -2.95792,-4.29076 -2.61656,-4.63212 0.25808,-0.25808 4.3917,-0.79432 4.3917,-0.56972 0,0.11229 0.60784,0.89571 1.35074,1.74092 2.74704,3.12533 3.21673,4.13194 3.18457,6.82485 -0.0224,1.87345 -1.00403,4.0209 -2.63263,5.75909 -1.61845,1.72735 -1.90268,2.26731 -1.90268,3.61452 0,0.93556 0.19716,1.288 1.56456,2.79688 2.01814,2.22694 2.75908,3.75762 2.88353,5.95703 0.14063,2.48538 -0.61424,4.32167 -2.68779,6.53831 -1.60542,1.7162 -1.628,1.76153 -1.628,3.26824 0,1.24469 0.11661,1.65204 0.62914,2.1976 l 0.62914,0.66969 -1.38747,1.66673 c -0.7631,0.9167 -1.4787,1.70174 -1.59022,1.74455 -0.11151,0.0428 -0.62044,-0.49298 -1.13095,-1.19063 z M 95.678492,100.59427 c 0,-1.231094 0.807591,-3.713214 1.567506,-4.817711 1.354031,-1.968019 1.362122,-1.967928 3.009862,0.03387 1.44853,1.759796 1.46459,1.797831 0.97883,2.318316 -0.56931,0.610007 -1.12192,1.931935 -0.93443,2.235295 0.0702,0.11358 -0.673094,0.28798 -1.651756,0.38756 -0.978662,0.0996 -2.047277,0.24768 -2.374699,0.32913 -0.493046,0.12265 -0.595313,0.0391 -0.595313,-0.48646 z m 9.605668,-1.669473 c 0.20778,-1.280416 1.08361,-2.963106 2.09013,-4.015669 l 0.80169,-0.838368 1.43911,1.696337 1.4391,1.696337 -0.68498,0.898066 c -0.62324,0.81711 -0.84521,0.914145 -2.46234,1.076441 -0.97753,0.09811 -2.00349,0.244297 -2.27991,0.324868 -0.44802,0.130594 -0.48523,0.03965 -0.3428,-0.838012 z m 9.58384,-0.984149 c 0.23826,-0.794038 1.58682,-2.923373 2.20678,-3.484432 0.46398,-0.419891 0.56114,-0.353038 1.9609,1.349204 0.80999,0.985041 1.45197,1.811739 1.4266,1.837107 -0.0254,0.02537 -1.05796,0.177228 -2.29464,0.33747 -1.23669,0.160241 -2.52592,0.353213 -2.86495,0.428825 -0.54009,0.120454 -0.59392,0.06248 -0.43469,-0.468174 z m 9.95492,-1.34235 c 0.1474,-0.275409 0.68643,-0.963906 1.19786,-1.529991 l 0.92986,-1.029247 0.90906,1.088075 c 0.49998,0.598441 0.83688,1.161433 0.74865,1.251093 -0.0882,0.08966 -1.03634,0.288522 -2.10691,0.441916 -1.87034,0.267985 -1.93602,0.259304 -1.67852,-0.221846 z"
         id="path49642"
         sodipodi:nodetypes="sssssssssssssssssscsssscssssssssscscssssssscssccsssscssssscsssssssscsscssssssssssssssscssssssssssssscccssssssssssssscssss" />
      <path
         style="fill:#a9774c;stroke-width:0.264583"
         d="m 159.31078,114.12609 c -14.40656,-1.42996 -26.21902,-2.60802 -26.24991,-2.61791 -0.0309,-0.01 -0.0485,-0.6605 -0.0391,-1.4458 0.009,-0.78531 -0.0641,-1.79734 -0.1633,-2.24896 -0.1689,-0.76903 -0.13284,-0.82043 0.56828,-0.81006 1.50925,0.0223 53.52792,5.18732 53.66952,5.32892 0.0805,0.0804 0.0655,1.11452 -0.0332,2.29793 -0.17563,2.10592 -0.1941,2.15107 -0.86901,2.12374 -0.37926,-0.0154 -12.47675,-1.19789 -26.88331,-2.62786 z m -34.59427,-3.35779 c -0.94659,-0.099 -0.99258,-0.14865 -1.00082,-1.08001 -0.005,-0.53691 -0.22722,-1.60909 -0.49438,-2.38261 l -0.48574,-1.40639 1.75115,0.17041 c 1.58107,0.15386 1.84582,0.26837 2.72592,1.17904 0.96485,0.99837 1.4955,2.48934 1.17927,3.31343 -0.1536,0.40026 -1.23807,0.46108 -3.6754,0.20613 z m -8.52609,-0.79792 c -1.63012,-0.12574 -1.88587,-0.33176 -2.06443,-1.66307 -0.0781,-0.58211 -0.39118,-1.53651 -0.69577,-2.12089 -0.3046,-0.58438 -0.55381,-1.09841 -0.55381,-1.14228 0,-0.0439 0.68461,-0.0268 1.52135,0.038 1.17287,0.0908 1.69583,0.2776 2.28303,0.81551 1.27334,1.16647 2.28103,2.71955 2.28103,3.51557 0,0.8237 0.18972,0.78556 -2.7714,0.55715 z m -10.23935,-1.05298 c -0.91383,-0.0964 -0.99818,-0.18515 -1.40469,-1.47755 -0.23786,-0.75623 -0.64278,-1.65378 -0.89982,-1.99454 -0.46606,-0.61786 -0.47461,-0.61868 -3.09323,-0.29544 -1.444234,0.17828 -2.670316,0.36293 -2.72463,0.41033 -0.05431,0.0474 0.393616,0.64554 0.995394,1.32919 0.601779,0.68366 1.055122,1.28203 1.007431,1.32973 -0.103762,0.10376 -8.376341,-0.67484 -8.844926,-0.83246 -0.179448,-0.0604 -0.256005,-0.29286 -0.170129,-0.51665 0.1881,-0.49018 0.302059,-0.48978 -2.810894,-0.01 -4.084092,0.62943 -3.821893,0.7683 -4.112217,-2.17804 l -0.180845,-1.83527 6.181428,-0.86499 c 3.399784,-0.47574 8.205488,-1.14925 10.679338,-1.49668 14.99102,-2.105352 22.43369,-3.146545 26.45834,-3.701386 1.89177,-0.260801 15.52442,-2.155997 30.29479,-4.211546 25.45131,-3.541987 26.86531,-3.711792 27.04856,-3.248222 0.10635,0.269027 0.22541,1.28471 0.26458,2.257073 l 0.0712,1.767933 -16.53646,2.309839 c -9.09505,1.270411 -22.96583,3.213384 -30.82395,4.317718 -7.85813,1.104331 -15.95438,2.241271 -17.99167,2.526521 -2.03729,0.28526 -5.75308,0.81674 -8.25731,1.18108 -2.50423,0.36433 -4.61759,0.66242 -4.69635,0.66242 -0.40944,0 -0.001,0.65315 1.27218,2.03544 0.77847,0.84504 1.55657,1.80433 1.7291,2.13175 0.30771,0.58393 0.28698,0.59446 -1.08467,0.55084 -0.7691,-0.0245 -1.83586,-0.0906 -2.37058,-0.14708 z"
         id="path49640" />
    </g>
  </g>
</svg>
