<?xml version="1.0" encoding="UTF-8" standalone="no"?>
<!-- Created with Inkscape (http://www.inkscape.org/) -->

<svg
   width="300"
   height="300"
   viewBox="0 0 79.374998 79.374998"
   version="1.1"
   id="svg54694"
   inkscape:version="1.1.1 (3bf5ae0d25, 2021-09-20)"
   sodipodi:docname="icon-dairy.svg"
   xmlns:inkscape="http://www.inkscape.org/namespaces/inkscape"
   xmlns:sodipodi="http://sodipodi.sourceforge.net/DTD/sodipodi-0.dtd"
   xmlns="http://www.w3.org/2000/svg"
   xmlns:svg="http://www.w3.org/2000/svg">
  <sodipodi:namedview
     id="namedview54696"
     pagecolor="#ffffff"
     bordercolor="#666666"
     borderopacity="1.0"
     inkscape:pageshadow="2"
     inkscape:pageopacity="0.0"
     inkscape:pagecheckerboard="0"
     inkscape:document-units="mm"
     showgrid="false"
     units="px"
     inkscape:zoom="1.1326109"
     inkscape:cx="-64.894309"
     inkscape:cy="75.489299"
     inkscape:window-width="2560"
     inkscape:window-height="1377"
     inkscape:window-x="1072"
     inkscape:window-y="468"
     inkscape:window-maximized="1"
     inkscape:current-layer="layer1" />
  <defs
     id="defs54691" />
  <g
     inkscape:label="Layer 1"
     inkscape:groupmode="layer"
     id="layer1">
    <g
       id="g48797"
       transform="matrix(0.48379428,0,0,0.48379428,-18.320479,-41.884728)">
      <path
         style="fill:#e6e6e6;stroke-width:0.264583"
         d="m 134.65823,217.83162 0.0813,-5.88721 0.71245,-0.51795 c 1.45035,-1.0544 43.33199,-34.1072 43.90744,-34.65155 l 0.59708,-0.56481 -0.0679,-19.00433 -0.0679,-19.00433 -22.48958,18.9392 -22.48958,18.93919 -0.0681,-16.63827 -0.0681,-16.63827 -8.20014,-17.55236 c -4.76757,-10.20493 -8.32964,-17.51841 -8.50949,-17.47127 -0.23322,0.0611 -0.23476,-0.009 -0.006,-0.28411 0.19621,-0.23642 0.32861,-2.03071 0.37551,-5.0887 l 0.0724,-4.723508 2.91042,-0.617112 c 1.60073,-0.339411 4.87495,-1.028446 7.27604,-1.531188 2.40109,-0.502743 7.22312,-1.519077 10.71562,-2.258522 3.4925,-0.739444 8.01688,-1.691032 10.05417,-2.11464 7.97005,-1.657189 12.72589,-2.652909 13.29531,-2.783609 l 0.59531,-0.136644 v 4.636076 4.636076 l 8.36524,16.728811 8.36524,16.72881 0.1139,15.74797 c 0.0626,8.66138 0.019,26.86937 -0.097,40.46221 l -0.21092,24.71425 -22.35729,5.89791 c -12.29651,3.24385 -22.47635,5.90402 -22.62187,5.9115 -0.17118,0.009 -0.23588,-2.0648 -0.18328,-5.87362 z m 20.82078,-89.87381 c 2.80757,-1.12634 3.72267,-4.46665 2.50123,-9.12998 -0.70672,-2.69818 -1.55211,-4.32549 -2.86177,-5.50869 -1.18373,-1.06943 -2.38281,-1.40416 -4.1583,-1.1608 -3.9346,0.5393 -5.60743,3.39486 -4.73045,8.07499 0.74345,3.96752 1.96307,6.39799 3.78893,7.55061 1.48375,0.93665 3.40641,0.99787 5.46036,0.17387 z m -53.98863,81.40065 c -0.0711,-0.18534 -0.0969,-2.95354 -0.0573,-6.15156 l 0.072,-5.81457 0.13176,6.15178 c 0.0725,3.38349 0.0983,6.15169 0.0573,6.15157 -0.041,-1.3e-4 -0.13264,-0.15187 -0.20376,-0.33722 z m 0.005,-62.76613 c 4e-5,-8.58573 0.0335,-12.05978 0.0743,-7.72012 0.0408,4.33966 0.0408,11.36435 -6e-5,15.61041 -0.0408,4.24607 -0.0742,0.69544 -0.0742,-7.89029 z"
         id="path48807" />
      <path
         style="fill:#d0d0d0;stroke-width:0.264583"
         d="m 101.49673,179.79754 c 0,-9.82266 0.033,-13.84102 0.0733,-8.92969 0.0403,4.91133 0.0403,12.94805 0,17.85937 -0.0403,4.91133 -0.0733,0.89297 -0.0733,-8.92968 z m 16.71855,-42.69849 c -8.9989,-3.21895 -16.38077,-5.94024 -16.40416,-6.04734 -0.065,-0.29782 16.26047,-23.54249 16.42155,-23.38141 0.21316,0.21316 16.4977,35.15449 16.41555,35.22242 -0.0392,0.0324 -7.43403,-2.57473 -16.43294,-5.79367 z"
         id="path48805" />
      <path
         style="fill:#c5c5c5;stroke-width:0.264583"
         d="M 117.97432,216.39613 101.6363,209.3731 v -5.79195 c 0,-3.18557 0.0905,-5.79195 0.20123,-5.79195 0.11068,0 7.52232,3.13822 16.47031,6.97382 l 16.26908,6.97382 0.0712,5.85848 c 0.0392,3.22215 -0.0204,5.85068 -0.13229,5.84116 -0.11192,-0.01 -7.55561,-3.17768 -16.54152,-7.04035 z m 0.13229,-47.39838 -16.47031,-7.05577 v -15.4295 c 0,-8.48623 0.0893,-15.37641 0.19844,-15.31152 0.10914,0.0649 7.46125,2.70597 16.33802,5.86905 8.87677,3.16307 16.22979,5.83254 16.34004,5.93215 0.11025,0.0996 0.16978,7.5769 0.13229,16.61622 l -0.0682,16.43513 z"
         id="path48803" />
      <path
         style="fill:#3caaee;stroke-width:0.264583"
         d="m 134.66342,194.01893 0.0865,-17.79327 17.47816,-14.68437 c 9.61298,-8.07641 19.78367,-16.62425 22.60152,-18.99521 l 5.12336,-4.31083 -0.002,18.99521 -0.002,18.9952 -22.44543,17.71299 c -12.34498,9.74214 -22.55376,17.74911 -22.68616,17.79326 -0.14358,0.0479 -0.20583,-7.10118 -0.15425,-17.71298 z"
         id="path48801" />
      <path
         style="fill:#2a9cd4;stroke-width:0.264583"
         d="m 118.04047,204.54647 -16.27188,-6.98356 -0.068,-17.763 c -0.0374,-9.76965 0.0221,-17.71372 0.13229,-17.6535 0.11017,0.0602 7.55241,3.24703 16.53833,7.0818 l 16.33802,6.97231 v 17.67351 c 0,9.72043 -0.0893,17.66957 -0.19844,17.66475 -0.10914,-0.005 -7.52078,-3.15136 -16.47031,-6.99231 z"
         id="path48799" />
    </g>
    <g
       id="g48273"
       transform="matrix(0.32339912,0,0,0.32339912,2.740063,11.66967)">
      <path
         style="fill:#fadd74;stroke-width:0.264583"
         d="m 143.38683,205.48079 c -7.12991,-1.96296 -115.753538,-34.12816 -116.663857,-34.54605 -1.770781,-0.81288 -3.592874,-2.65181 -4.526256,-4.56806 -0.732913,-1.50469 -0.778189,-1.79798 -0.867915,-5.6224 -0.05207,-2.21919 -0.0219,-4.03489 0.06705,-4.03489 0.08894,0 0.61346,0.29895 1.165598,0.66434 2.281815,1.51003 5.23987,2.06564 7.583725,1.42443 1.369876,-0.37476 3.336141,-2.37528 3.775307,-3.84109 1.862244,-6.21561 -3.879734,-14.06578 -10.66365,-14.57884 -1.975198,-0.14939 -1.975198,-0.14939 -1.949039,-20.81484 0.02187,-17.28029 0.08205,-20.488458 0.367353,-19.584928 0.540404,1.711408 1.127339,2.678168 2.056,3.386488 0.935019,0.71317 1.029502,0.74242 35.121319,10.87129 11.568906,3.43718 21.405143,6.36694 21.858308,6.51056 0.777862,0.24654 0.832078,0.35099 0.969632,1.86796 0.473292,5.21955 6.417741,10.40138 11.03691,9.62098 2.529478,-0.42735 4.499732,-2.72315 4.499732,-5.24322 0,-0.68166 0.05959,-1.23938 0.132419,-1.23938 0.727151,0 52.131424,15.54952 52.931754,16.01157 1.29693,0.74876 3.13643,2.69409 3.73557,3.95051 0.2406,0.50454 0.55426,0.84515 0.69702,0.75692 0.1595,-0.0986 0.19331,0.10357 0.0877,0.52428 -0.0945,0.37659 -0.0524,0.75856 0.0937,0.84883 0.2438,0.15067 0.40722,8.07039 0.16653,8.07039 -0.0545,0 -0.60521,-0.17859 -1.22389,-0.39688 -0.61868,-0.21828 -1.85403,-0.39571 -2.74524,-0.39429 -5.59174,0.009 -8.05422,5.51011 -5.17084,11.55168 1.48708,3.11589 5.04824,6.25713 7.93124,6.99602 1.3275,0.34023 1.3275,0.34023 1.25148,12.53081 -0.076,12.19058 -0.076,12.19058 -0.93589,13.93665 -1.63454,3.3191 -4.64164,5.29057 -8.26302,5.41725 -1.09429,0.0383 -2.22774,0.004 -2.51877,-0.0761 z m -33.10884,-18.70913 c 1.40697,-0.58787 2.0203,-1.58711 2.0203,-3.2915 0,-1.90382 -0.73169,-3.4093 -2.37508,-4.88685 -1.93476,-1.73952 -3.93822,-2.1993 -5.4819,-1.25806 -1.24697,0.76032 -1.7205,1.64635 -1.70849,3.19679 0.0138,1.78378 0.82117,3.39536 2.422,4.83465 1.84002,1.65433 3.46187,2.0991 5.12317,1.40497 z m 20.17497,-13.10595 c 3.96893,-1.80236 3.80465,-7.90407 -0.32396,-12.03268 -6.48297,-6.48297 -14.50451,-1.66213 -10.6823,6.41992 2.18474,4.61963 7.37016,7.26398 11.00626,5.61276 z m -72.722142,-5.66766 c 4.194108,-2.90652 1.821815,-10.93921 -4.087641,-13.84095 -1.250833,-0.61419 -1.886606,-0.755 -3.408997,-0.755 -1.598787,0 -2.031637,0.10603 -2.971334,0.7279 -1.879858,1.24403 -2.69579,3.60678 -2.152986,6.23454 0.743917,3.60136 3.266218,6.62679 6.731142,8.07382 0.727578,0.30386 1.645658,0.4203 2.937621,0.3726 1.562243,-0.0577 2.06029,-0.19482 2.952195,-0.81291 z m 26.040528,-6.27049 c 1.766642,-0.49068 3.452016,-1.88352 4.317571,-3.56816 0.72648,-1.41396 0.791808,-1.75949 0.770843,-4.07714 -0.0164,-1.81472 -0.173929,-2.96 -0.555893,-4.04185 -2.316733,-6.56177 -9.26263,-11.31359 -14.853382,-10.16147 -3.730503,0.76876 -5.631634,3.34809 -5.677108,7.70232 -0.02841,2.7202 0.726918,5.0367 2.513036,7.70716 2.01763,3.01661 5.650886,5.7284 8.609332,6.42584 1.388705,0.32737 3.721862,0.33374 4.875601,0.0133 z m 25.110524,-6.41518 c 1.14194,-0.76955 1.55555,-1.60045 1.56044,-3.13474 0.005,-1.5566 -0.54454,-2.86811 -1.77,-4.22455 -3.14907,-3.48565 -7.81216,-2.72242 -7.81216,1.27864 0,3.33578 3.07094,6.58069 6.30579,6.66302 0.45142,0.0115 1.22359,-0.25058 1.71593,-0.58237 z M 42.961146,128.18009 c 1.1932,-0.63992 1.86986,-1.95265 1.862588,-3.61345 -0.0073,-1.65611 -0.693093,-3.19789 -2.102917,-4.72737 -2.680374,-2.90786 -6.737724,-3.09032 -8.03276,-0.36123 -2.11394,4.45479 4.067996,10.95727 8.273089,8.70205 z M 104.44661,95.584934 c -0.75317,-0.724465 -1.28447,-1.317209 -1.18068,-1.317209 0.10379,0 0.77507,0.595313 1.49174,1.322917 1.68243,1.708118 1.46654,1.704154 -0.31106,-0.0057 z"
         id="path48279" />
      <path
         style="fill:#f3c34d;stroke-width:0.264583"
         d="m 125.75081,173.80314 c -2.73728,-0.97778 -5.04078,-3.07888 -6.30411,-5.75019 -3.82221,-8.08205 4.19933,-12.90289 10.6823,-6.41992 4.12861,4.12861 4.29289,10.23032 0.32396,12.03268 -1.26512,0.57451 -3.31113,0.63432 -4.70215,0.13743 z M 78.895745,161.71426 c -4.287036,-1.01064 -8.988626,-5.56762 -10.533271,-10.20928 -0.699053,-2.10065 -0.808956,-4.86704 -0.269214,-6.77632 0.357635,-1.2651 0.357635,-1.2651 1.117373,0.24109 2.459902,4.87678 7.703579,8.53066 12.281825,8.55817 2.507234,0.0151 5.553292,-1.67079 6.321962,-3.49892 0.311579,-0.74103 0.33246,-0.70794 0.79643,1.26224 1.449314,6.1543 -1.696974,10.77787 -7.268807,10.68176 -0.800365,-0.0138 -1.901198,-0.13024 -2.446298,-0.25874 z m 10.894271,-29.70832 c -4.186356,-1.12876 -7.818188,-5.44654 -8.119131,-9.65259 -0.159117,-2.22388 0.214188,-3.46492 1.455579,-4.83899 1.131491,-1.25242 3.189589,-1.95624 4.906057,-1.67774 2.74954,0.44612 5.90668,2.66632 7.61532,5.35534 2.310008,3.63544 2.076357,8.16683 -0.513655,9.96171 -1.754237,1.21569 -3.163061,1.44036 -5.34417,0.85227 z m -50.38443,-3.6671 c -3.712851,-1.32345 -6.1352,-5.87329 -4.717529,-8.8608 1.295036,-2.72909 5.352386,-2.54663 8.03276,0.36123 1.409824,1.52948 2.095665,3.07126 2.102917,4.72737 0.01356,3.09721 -2.466938,4.82417 -5.418148,3.7722 z"
         id="path48277" />
      <path
         style="fill:#edae4a;stroke-width:0.264583"
         d="m 106.54914,186.3176 c -2.98313,-1.47663 -4.66717,-5.52129 -3.25985,-7.82935 0.72509,-1.18916 1.42464,-1.48228 3.22656,-1.35194 1.89742,0.13725 3.39682,1.08614 4.64284,2.93819 1.50535,2.23753 1.42948,5.11981 -0.16465,6.25493 -1.01873,0.7254 -2.966,0.72021 -4.4449,-0.0118 z M 52.002718,168.3483 c -5.730544,-2.06121 -8.90346,-9.80862 -5.5069,-13.44638 0.966603,-1.03524 1.898349,-1.36753 3.834578,-1.36753 2.345393,0 4.443047,0.99255 6.342766,3.00123 5.923814,6.26356 2.683951,14.45796 -4.670444,11.81268 z m 52.998972,-13.07254 c -2.19632,-0.95635 -4.07281,-3.68129 -4.0779,-5.9217 -0.007,-3.30167 2.8814,-4.54881 6.09454,-2.63102 3.32032,1.98177 4.51826,6.55734 2.1952,8.38465 -0.81613,0.64197 -2.92981,0.72632 -4.21184,0.16807 z m -25.877271,-2.03563 c -2.734421,-0.64195 -5.806202,-2.69417 -7.960537,-5.31835 -1.16337,-1.4171 -2.521839,-3.73399 -2.521839,-4.30105 0,-0.57327 1.899256,-2.53503 3.004992,-3.10388 1.748772,-0.89968 4.615019,-0.96151 6.94877,-0.14991 3.535802,1.22963 6.770595,4.01613 8.560321,7.374 1.042736,1.95638 0.951593,2.47217 -0.692578,3.91942 -1.895552,1.66853 -4.538107,2.23735 -7.339129,1.57977 z m 74.588831,-8.32482 c -0.58929,-1.09425 -2.52345,-2.89551 -3.73763,-3.4808 -0.45074,-0.21728 -12.46931,-3.8654 -26.70793,-8.10693 -25.888384,-7.71187 -25.888384,-7.71187 -26.337197,-9.22374 -0.935231,-3.15041 -3.319918,-5.9809 -6.17266,-7.3266 -2.192978,-1.03448 -3.518564,-1.21494 -5.242708,-0.71372 -1.729235,0.50271 -3.019705,1.76034 -3.617135,3.5251 -0.433144,1.27946 -0.433144,1.27946 -27.680482,-6.83949 -14.986035,-4.46542 -27.750282,-8.24879 -28.364992,-8.40748 -1.361887,-0.35157 -2.81789,-1.58357 -3.589708,-3.03742 -0.841011,-1.584186 -0.811204,-4.821557 0.06077,-6.600558 1.161663,-2.370017 2.711883,-3.694633 6.498673,-5.552918 13.379071,-6.565488 37.765972,-18.177842 38.674628,-18.415766 1.51067,-0.395556 5.227108,-0.391487 6.833703,0.0075 4.212523,1.046104 7.04864,2.852558 12.117103,7.717951 3.650435,3.504181 3.650435,3.504181 3.344135,4.373887 -0.168468,0.478339 -0.260461,1.680985 -0.204433,2.672547 0.206883,3.661323 2.899336,7.462435 6.505792,9.184653 1.9368,0.924895 4.672821,1.041027 6.236021,0.264692 1.01112,-0.502151 1.01112,-0.502151 2.51354,0.956518 0.82634,0.802269 10.49164,9.943004 21.47847,20.312744 27.87505,26.30942 25.65308,24.10349 26.98379,26.78897 1.09403,2.20786 1.43928,3.8154 0.40825,1.90088 z"
         id="path48275" />
    </g>
  </g>
</svg>
