<?xml version="1.0" encoding="UTF-8" standalone="no"?>
<!-- Created with Inkscape (http://www.inkscape.org/) -->

<svg
   width="300"
   height="300"
   viewBox="0 0 79.374998 79.374998"
   version="1.1"
   id="svg54694"
   inkscape:version="1.1.1 (3bf5ae0d25, 2021-09-20)"
   sodipodi:docname="icon-greens.svg"
   xmlns:inkscape="http://www.inkscape.org/namespaces/inkscape"
   xmlns:sodipodi="http://sodipodi.sourceforge.net/DTD/sodipodi-0.dtd"
   xmlns="http://www.w3.org/2000/svg"
   xmlns:svg="http://www.w3.org/2000/svg">
  <sodipodi:namedview
     id="namedview54696"
     pagecolor="#ffffff"
     bordercolor="#666666"
     borderopacity="1.0"
     inkscape:pageshadow="2"
     inkscape:pageopacity="0.0"
     inkscape:pagecheckerboard="0"
     inkscape:document-units="mm"
     showgrid="false"
     units="px"
     inkscape:zoom="1.1326109"
     inkscape:cx="-71.957636"
     inkscape:cy="70.191804"
     inkscape:window-width="2560"
     inkscape:window-height="1377"
     inkscape:window-x="1072"
     inkscape:window-y="468"
     inkscape:window-maximized="1"
     inkscape:current-layer="layer1" />
  <defs
     id="defs54691" />
  <g
     inkscape:label="Layer 1"
     inkscape:groupmode="layer"
     id="layer1">
    <g
       id="g49036"
       transform="matrix(0.54279067,0,0,0.54279067,-9.0246412,-39.524015)">
      <path
         style="fill:#87be56;stroke-width:0.264583"
         d="m 100.24874,213.83619 c -1.306706,-0.35573 -3.784577,-1.50756 -3.925203,-1.82462 -0.04881,-0.11005 -0.197638,-0.13279 -0.330729,-0.0505 -0.13309,0.0823 -0.241985,0.0164 -0.241985,-0.14626 0,-0.1627 -0.122013,-0.22041 -0.27114,-0.12824 -0.149124,0.0922 -0.238421,0.0511 -0.198437,-0.0912 0.03999,-0.14232 -1.548419,-2.205 -3.529788,-4.58373 C 84.40046,198.18638 80.244902,192.17582 77.236899,186.01791 73.295348,177.94884 71.54083,170.66744 71.224518,161.066 l -0.15957,-4.84358 -1.084665,-0.54442 c -3.031823,-1.52171 -5.43973,-4.24015 -6.532808,-7.3753 -0.844764,-2.42294 -0.836089,-6.10143 0.01963,-8.32229 0.640916,-1.66338 1.636257,-3.2657 2.977623,-4.79343 l 0.797462,-0.90826 -0.686651,-1.53007 c -2.29796,-5.12053 -1.898812,-11.11898 1.064479,-15.99721 1.216467,-2.00258 3.734403,-4.51337 5.70934,-5.69315 1.857989,-1.10991 4.662324,-2.09986 6.570938,-2.31958 l 1.479674,-0.17034 -0.124486,-2.58519 c -0.146762,-3.0478 0.168216,-4.66006 1.432967,-7.334879 0.95473,-2.019157 3.044166,-4.505146 4.822034,-5.73721 1.414951,-0.980563 4.528645,-2.221148 6.096907,-2.429186 l 1.281252,-0.169964 0.283494,-1.710828 c 0.747305,-4.509846 3.894105,-8.132253 8.128962,-9.357566 1.83393,-0.53063 4.97063,-0.478494 6.68097,0.111047 0.76943,0.265215 2.01187,0.894665 2.76098,1.39878 l 1.36202,0.916572 0.67861,-0.552903 c 0.37323,-0.304096 1.45251,-0.93596 2.39839,-1.404142 1.57555,-0.779845 1.93061,-0.850845 4.23334,-0.84654 2.2889,0.0043 2.67059,0.08111 4.27083,0.859742 3.41599,1.66211 5.60933,4.864167 5.96882,8.713912 0.13372,1.431969 0.23747,1.690403 0.7131,1.776286 0.30614,0.05528 1.38738,0.225728 2.40275,0.378779 2.47195,0.372604 5.75785,2.018456 7.79472,3.904243 2.58775,2.395795 4.53266,5.995097 4.99199,9.238307 l 0.18664,1.31778 2.06477,1.05833 c 4.49799,2.30553 7.55446,5.3446 9.57951,9.525 1.68055,3.46922 2.08642,5.22916 2.07461,8.99584 -0.0105,3.35788 -0.38998,5.25328 -1.60714,8.02792 -2.52479,5.75553 -8.17784,10.52212 -14.36352,12.11117 -1.91568,0.49212 -5.68144,0.61891 -8.00365,0.26948 -1.42396,-0.21427 -1.52135,-0.19483 -1.52135,0.30357 0,0.45132 0.27223,0.57831 1.78594,0.83306 5.94123,0.9999 9.41849,5.34938 10.02644,12.54143 0.0923,1.09124 0.1051,2.14724 0.0286,2.34667 -0.11344,0.2956 -0.67027,0.32132 -3.01349,0.13921 -5.65898,-0.43981 -14.22383,0.58109 -19.0571,2.27154 -8.05965,2.81888 -13.1677,7.9875 -15.21513,15.39553 -0.51112,1.84934 -0.58507,2.76826 -0.58558,7.27604 -5.3e-4,4.585 0.0779,5.52756 0.70415,8.46666 0.3876,1.81901 1.19426,4.91464 1.79258,6.87917 0.86986,2.85613 1.06147,3.84346 0.95624,4.92718 -0.23216,2.39094 -1.63721,4.515 -3.91289,5.91524 -0.73508,0.4523 -1.2662,0.7086 -1.18026,0.56956 0.0859,-0.13905 -0.51263,-1.95995 -1.33012,-4.04646 -6.66107,-17.00107 -10.157696,-32.9219 -10.157696,-46.24999 v -3.73611 l 1.201542,-1.28455 c 2.084344,-2.22833 6.358624,-4.03293 10.428304,-4.40281 2.28606,-0.20778 3.36352,-0.55734 3.84746,-1.24826 0.91687,-1.30902 0.1174,-3.41212 -1.42595,-3.75109 -1.91766,-0.42119 -8.5502,1.03748 -11.479582,2.52467 -0.841097,0.427 -1.600576,0.77637 -1.687732,0.77637 -0.51984,0 1.243957,-7.77583 2.700704,-11.90625 1.33267,-3.7786 3.43495,-8.16523 5.29335,-11.04511 l 1.54404,-2.39271 1.86653,-0.27799 c 5.23818,-0.78014 10.07214,-0.55683 14.69032,0.67864 3.81471,1.02051 4.60551,1.0559 5.41893,0.24247 0.89984,-0.89984 0.93449,-2.47969 0.0722,-3.28982 -1.51842,-1.42648 -7.12351,-2.67861 -12.91121,-2.88426 l -4.38594,-0.15584 2.01817,-1.88092 c 2.7187,-2.5338 4.58298,-3.93404 6.72269,-5.04933 1.57613,-0.82154 2.02212,-0.93262 3.74432,-0.93262 2.00117,0 4.26965,0.58997 7.17635,1.86639 1.20974,0.53123 1.45897,0.5602 2.19529,0.25521 0.85435,-0.35388 1.59942,-1.44272 1.59942,-2.33737 0,-1.93037 -5.12403,-4.29085 -10.21025,-4.70354 -1.59185,-0.12916 -2.22517,-0.28131 -2.22517,-0.53456 0,-0.19471 0.53579,-1.3783 1.19063,-2.63019 0.65484,-1.2519 1.19062,-2.57366 1.19062,-2.93725 0,-0.37787 -0.33131,-0.99238 -0.77339,-1.43446 -1.05016,-1.050163 -2.34062,-1.05908 -3.37344,-0.0233 -1.51361,1.51792 -3.50881,6.4938 -3.52217,8.78402 -0.003,0.46321 -0.25114,0.8166 -0.80347,1.14286 -1.43957,0.85038 -4.84767,3.63688 -6.96457,5.6943 -4.20931,4.09105 -7.72945,8.91383 -10.774949,14.76228 -0.896448,1.7215 -1.669751,3.17357 -1.71845,3.22682 -0.0487,0.0533 -0.738055,-0.55268 -1.531895,-1.34653 -2.602757,-2.60275 -3.864165,-6.01434 -3.871251,-10.47013 -0.0036,-2.24448 -0.05973,-2.51524 -0.642583,-3.09809 -0.87598,-0.87598 -1.781516,-1.05505 -2.76457,-0.5467 -1.235999,0.63916 -1.468789,1.30922 -1.477269,4.25213 -0.01267,4.39317 1.384474,8.56018 3.978047,11.86466 1.027798,1.30952 3.13336,3.20689 4.255918,3.8351 0.340889,0.19077 0.302961,0.52185 -0.280308,2.44689 -3.000282,9.90222 -3.752352,20.41223 -2.39065,33.40881 l 0.190039,1.8138 -1.370435,-0.98456 c -0.75374,-0.54151 -1.908911,-1.68435 -2.567046,-2.53965 -1.31377,-1.70734 -1.840582,-2.08776 -2.891136,-2.08776 -0.920861,0 -2.246,1.32263 -2.246,2.24174 0,2.37813 4.52071,6.85471 8.467957,8.38529 l 1.540849,0.59748 0.571989,2.78826 c 1.516531,7.39264 4.530137,17.42641 7.567323,25.1953 1.42231,3.63818 1.82825,4.4352 2.3062,4.52803 0.31903,0.062 -0.19385,0.12085 -1.13973,0.13084 -0.94589,0.01 -2.25558,-0.12768 -2.91042,-0.30595 z m -26.332248,-15.58131 -2.11046,-2.18281 2.182813,2.11046 c 1.200547,1.16076 2.182812,2.14302 2.182812,2.18281 0,0.19298 -0.295034,-0.0831 -2.255165,-2.11046 z m -29.143429,-76.7953 c 0.0012,-1.01865 0.049,-1.40295 0.106272,-0.854 0.05728,0.54895 0.05632,1.38239 -0.0021,1.85208 -0.05845,0.4697 -0.105311,0.0206 -0.104137,-0.99808 z"
         id="path49040" />
      <path
         style="fill:#649b34;stroke-width:0.264583"
         d="m 101.99912,209.49968 c -3.043481,-7.78493 -6.055977,-17.81301 -7.573751,-25.21171 l -0.571989,-2.78826 -1.540849,-0.59748 c -3.947247,-1.53058 -8.467957,-6.00716 -8.467957,-8.38529 0,-0.91911 1.325139,-2.24174 2.246,-2.24174 1.050554,0 1.577366,0.38042 2.891136,2.08776 0.658135,0.8553 1.813306,1.99814 2.567046,2.53965 l 1.370435,0.98456 -0.190039,-1.8138 c -1.361702,-12.99658 -0.609632,-23.50659 2.39065,-33.40881 0.583269,-1.92504 0.621197,-2.25611 0.280308,-2.44688 -1.122558,-0.62822 -3.22812,-2.52559 -4.255918,-3.83511 -2.593573,-3.30448 -3.99071,-7.47149 -3.978047,-11.86466 0.0085,-2.94291 0.24127,-3.61297 1.477269,-4.25213 0.983054,-0.50835 1.88859,-0.32928 2.76457,0.5467 0.582856,0.58285 0.639014,0.85361 0.642583,3.09809 0.0071,4.45579 1.268494,7.86738 3.871251,10.47014 0.79384,0.79384 1.483193,1.39977 1.531895,1.34652 0.0487,-0.0532 0.822002,-1.50532 1.71845,-3.22682 3.045497,-5.84845 6.565637,-10.67123 10.774947,-14.76228 2.1169,-2.05742 5.525,-4.84392 6.96457,-5.69429 0.55233,-0.32627 0.80077,-0.67966 0.80347,-1.14287 0.0134,-2.29022 2.00856,-7.26609 3.52217,-8.78402 1.03282,-1.03576 2.32328,-1.026843 3.37344,0.0233 0.44208,0.44208 0.77339,1.05659 0.77339,1.43446 0,0.36359 -0.53578,1.68535 -1.19062,2.93725 -0.65484,1.25189 -1.19063,2.43548 -1.19063,2.63019 0,0.25325 0.63332,0.4054 2.22517,0.53456 5.08622,0.41269 10.21025,2.77317 10.21025,4.70354 0,0.89465 -0.74507,1.98349 -1.59942,2.33737 -0.73632,0.30499 -0.98555,0.27602 -2.19529,-0.25521 -2.9067,-1.27642 -5.17518,-1.86639 -7.17635,-1.86639 -1.7222,0 -2.16819,0.11108 -3.74432,0.93262 -2.13971,1.11529 -4.00399,2.51553 -6.72269,5.04933 l -2.01817,1.88092 4.38594,0.15584 c 5.7877,0.20565 11.39279,1.45778 12.91121,2.88426 0.86233,0.81013 0.82768,2.38998 -0.0722,3.28982 -0.81342,0.81343 -1.60422,0.77804 -5.41893,-0.24247 -4.61818,-1.23547 -9.45214,-1.45878 -14.69032,-0.67864 l -1.86653,0.27799 -1.54404,2.39271 c -1.8584,2.87988 -3.96068,7.26651 -5.29335,11.04511 -1.456745,4.13042 -3.220542,11.90625 -2.700702,11.90625 0.08716,0 0.846635,-0.34937 1.687732,-0.77637 2.92938,-1.48719 9.56192,-2.94586 11.47958,-2.52467 1.54335,0.33897 2.34282,2.44207 1.42595,3.75109 -0.48394,0.69092 -1.5614,1.04048 -3.84746,1.24826 -4.06968,0.36988 -8.34396,2.17448 -10.428302,4.40281 l -1.201542,1.28455 v 3.73611 c 0,13.33453 3.495824,29.24629 10.165634,46.27044 0.82187,2.09775 1.4009,3.90264 1.28673,4.01087 -0.32486,0.30798 -3.00209,1.03858 -3.80578,1.03858 -0.69123,0 -0.80258,-0.20087 -2.45662,-4.43177 z m -9.158714,1.02425 C 79.506037,204.4495 71.975017,197.93173 65.707384,187.04147 l -1.655011,-2.87565 -1.550006,-0.17547 c -4.516758,-0.51135 -8.790619,-3.58738 -10.84987,-7.80901 -0.952905,-1.95354 -1.009659,-2.21074 -1.011344,-4.58322 -9.79e-4,-1.38245 0.0878,-2.93026 0.197292,-3.43959 0.190587,-0.88654 0.140968,-0.97049 -1.163357,-1.96823 -3.054905,-2.33683 -6.298728,-7.46665 -7.371769,-11.65781 -0.664179,-2.5942 -0.72954,-6.70734 -0.14193,-8.93151 0.946352,-3.58205 3.096966,-6.50209 6.068864,-8.24013 l 1.758616,-1.02847 -0.456758,-0.68953 c -3.155594,-4.76372 -4.585911,-9.17215 -4.576691,-14.10597 0.01093,-5.84927 2.090434,-10.28983 6.080822,-12.98495 0.654844,-0.44228 1.232019,-0.83617 1.282611,-0.87531 0.05059,-0.0391 -0.163653,-0.75441 -0.476101,-1.58951 -1.409056,-3.76603 -1.806077,-8.85434 -0.966084,-12.381523 1.862628,-7.821292 8.951148,-11.099951 15.72863,-7.274976 0.779769,0.440074 1.449208,0.762559 1.487638,0.716634 0.03843,-0.04592 0.274035,-0.708397 0.523555,-1.472159 0.951473,-2.912373 3.74314,-5.744382 6.360472,-6.452388 1.712164,-0.463152 4.537572,-0.156409 6.309595,0.685008 3.684802,1.749668 7.167499,5.905135 8.78038,10.476529 l 0.344686,0.976943 -1.365297,0.629408 c -2.13672,0.985038 -5.187019,4.158413 -6.327235,6.582533 -1.297091,2.757631 -1.611091,4.347371 -1.463612,7.410061 l 0.124487,2.58519 -1.479675,0.17034 c -0.813823,0.0937 -2.295159,0.45675 -3.291858,0.80682 -9.487156,3.3321 -14.145402,14.08381 -10.052899,23.20312 l 0.686652,1.53007 -0.797462,0.90826 c -1.341366,1.52773 -2.336707,3.13005 -2.977623,4.79343 -0.855716,2.22086 -0.864391,5.89935 -0.01963,8.32229 1.093078,3.13515 3.500985,5.85359 6.532808,7.3753 l 1.084665,0.54442 0.15957,4.84358 c 0.316312,9.60144 2.07083,16.88284 6.012381,24.95191 3.388624,6.93712 7.881815,13.22101 17.830759,24.93697 0.401611,0.47295 0.689856,0.85421 0.640538,0.84726 -0.04931,-0.007 -1.339816,-0.58215 -2.867785,-1.27821 z"
         id="path49038" />
    </g>
    <g
       id="g49170"
       transform="matrix(0.36923875,-0.05776406,0.05776406,0.36923875,-33.586961,8.5389718)">
      <path
         style="fill:#f15956;stroke-width:0.264583"
         d="m 72.558289,146.08808 c 0,-1.52797 0.04373,-2.15305 0.09717,-1.38907 0.05345,0.76399 0.05345,2.01415 0,2.77813 -0.05345,0.76398 -0.09717,0.13891 -0.09717,-1.38906 z m 108.743741,0 c 0,-1.52797 0.0437,-2.15305 0.0972,-1.38907 0.0534,0.76399 0.0534,2.01415 0,2.77813 -0.0534,0.76398 -0.0972,0.13891 -0.0972,-1.38906 z m -98.441978,-9.10646 c -0.706713,-0.60907 -0.741381,-0.74564 -0.722005,-2.84427 0.03605,-3.90404 1.35408,-8.48711 3.480347,-12.10188 1.135167,-1.92985 4.27575,-5.39164 6.110765,-6.73574 3.052717,-2.23606 6.611926,-3.54852 10.273091,-3.78822 2.35271,-0.15403 2.44173,-0.13891 3.10886,0.52822 0.50278,0.50279 0.68679,0.96122 0.68679,1.71103 0,1.57642 -0.81089,2.17579 -3.32508,2.45775 -4.007471,0.44941 -6.982456,1.85244 -9.779001,4.61186 -3.335287,3.29101 -5.1123,7.16539 -5.769316,12.57872 -0.327576,2.69896 -0.433147,3.0521 -1.078368,3.6071 -0.922486,0.79348 -2.047622,0.78423 -2.986083,-0.0246 z m 21.024358,-33.94779 c 0.47555,-0.0589 1.18992,-0.0577 1.5875,0.003 0.39758,0.0604 0.008,0.10855 -0.86463,0.10706 -0.87313,-0.002 -1.19842,-0.0509 -0.72287,-0.10976 z m 44.71458,0 c 0.47555,-0.0589 1.18992,-0.0577 1.5875,0.003 0.39758,0.0604 0.008,0.10855 -0.86463,0.10706 -0.87313,-0.002 -1.19842,-0.0509 -0.72287,-0.10976 z"
         id="path49178" />
      <path
         style="fill:#cf3733;stroke-width:0.264583"
         d="m 112.01561,201.90368 c -17.284169,-1.82724 -34.724318,-21.95377 -38.79273,-44.76816 -0.946482,-5.30757 -0.668333,-17.5556 0.574765,-25.30924 3.359506,-20.95443 13.188953,-29.90717 31.406515,-28.60532 3.71743,0.26566 8.23317,0.95671 12.08317,1.84911 1.17514,0.27239 2.91052,0.62983 3.8564,0.79432 2.97944,0.5181 2.74272,0.16278 3.15095,4.72975 0.19236,2.15193 0.3106,2.56325 0.90886,3.16151 0.94446,0.94447 2.43,0.91305 3.27495,-0.0693 0.50407,-0.58602 0.59909,-0.99068 0.58042,-2.47192 -0.0123,-0.97415 -0.10628,-2.44145 -0.20888,-3.26067 l -0.18654,-1.48948 1.53095,-0.16002 c 0.84202,-0.088 3.40656,-0.56758 5.69897,-1.06572 5.86784,-1.27508 8.73277,-1.72469 12.87689,-2.02085 14.52797,-1.03824 23.66381,4.4888 28.44004,17.20577 2.78815,7.42358 3.99429,15.69161 4.01569,27.52727 0.0121,6.70215 -0.31066,9.44571 -1.71982,14.61824 -5.01529,18.40949 -19.33824,34.94725 -33.40149,38.56649 -4.38155,1.12761 -7.92664,1.15916 -13.5839,0.1209 -3.15355,-0.57876 -8.19257,-0.53611 -11.77396,0.0997 -3.80488,0.67543 -6.138,0.82177 -8.73125,0.54762 z M 85.846135,137.00619 c 0.645221,-0.555 0.750792,-0.90814 1.078368,-3.6071 0.657016,-5.41333 2.434029,-9.28771 5.769316,-12.57872 2.796545,-2.75942 5.77153,-4.16245 9.779001,-4.61186 2.51419,-0.28196 3.32508,-0.88133 3.32508,-2.45775 0,-0.74981 -0.18401,-1.20824 -0.68679,-1.71103 -0.66713,-0.66713 -0.75615,-0.68225 -3.10886,-0.52822 -3.661165,0.2397 -7.220374,1.55216 -10.273091,3.78822 -1.835015,1.3441 -4.975598,4.80589 -6.110765,6.73574 -2.126267,3.61477 -3.444301,8.19784 -3.480347,12.10188 -0.01937,2.09863 0.01529,2.2352 0.722005,2.84427 0.938461,0.8088 2.063597,0.81805 2.986083,0.0246 z"
         id="path49176" />
      <path
         style="fill:#649b34;stroke-width:0.264583"
         d="m 124.73318,96.360139 c 0.10875,-0.807913 0.23316,-1.766591 0.27645,-2.130393 0.27365,-2.299618 1.24133,-7.772147 1.59068,-8.995833 2.16883,-7.596844 7.75875,-13.459222 15.31321,-16.059605 1.74796,-0.601678 13.32879,-2.582093 13.58734,-2.323544 0.17196,0.171957 -1.23317,9.716651 -1.72922,11.746219 -1.89314,7.745641 -8.10839,14.473505 -15.56228,16.845788 -1.90842,0.607375 -9.43313,1.959589 -10.91406,1.96129 -0.32743,2.64e-4 -0.5957,0.08998 -0.59616,0.199123 -5.3e-4,0.10914 -0.48748,0.204615 -1.08227,0.212164 l -1.08143,0.01373 z"
         id="path49174" />
      <path
         style="fill:#4c312b;stroke-width:0.264583"
         d="m 126.17082,114.40923 c -0.78322,-0.27333 -1.58154,-1.22894 -1.69728,-2.0317 -0.0648,-0.44967 -0.25374,-2.18679 -0.41981,-3.86028 -1.07337,-10.816935 -5.61456,-19.308912 -12.78287,-23.903835 -1.76606,-1.132051 -2.07933,-1.534319 -2.11274,-2.712921 -0.0212,-0.748015 0.13818,-1.110116 0.70218,-1.595246 1.00493,-0.864408 1.92045,-0.787752 3.75008,0.313994 4.29357,2.58545 8.16191,6.91258 10.6754,11.941512 0.75954,1.519685 0.79996,1.737805 0.55818,3.012676 -0.41878,2.208236 -0.39223,2.292638 0.71044,2.25837 0.96328,-0.02993 0.97496,-0.01744 1.45432,1.557321 0.89899,2.953279 1.81786,7.923169 1.98272,10.723869 0.1578,2.68079 0.14005,2.81264 -0.46841,3.47949 -0.65044,0.71286 -1.65268,1.06086 -2.35221,0.81675 z"
         id="path49172" />
    </g>
  </g>
</svg>
