<?xml version="1.0" encoding="UTF-8" standalone="no"?>
<!-- Created with Inkscape (http://www.inkscape.org/) -->

<svg
   width="210mm"
   height="297mm"
   viewBox="0 0 210 297"
   version="1.1"
   id="svg5"
   inkscape:version="1.1.1 (3bf5ae0d25, 2021-09-20)"
   sodipodi:docname="can.svg"
   xmlns:inkscape="http://www.inkscape.org/namespaces/inkscape"
   xmlns:sodipodi="http://sodipodi.sourceforge.net/DTD/sodipodi-0.dtd"
   xmlns="http://www.w3.org/2000/svg"
   xmlns:svg="http://www.w3.org/2000/svg">
  <sodipodi:namedview
     id="namedview7"
     pagecolor="#ffffff"
     bordercolor="#666666"
     borderopacity="1.0"
     inkscape:pageshadow="2"
     inkscape:pageopacity="0.0"
     inkscape:pagecheckerboard="0"
     inkscape:document-units="mm"
     showgrid="false"
     inkscape:zoom="0.56630543"
     inkscape:cx="271.05514"
     inkscape:cy="318.73259"
     inkscape:window-width="2560"
     inkscape:window-height="1377"
     inkscape:window-x="1072"
     inkscape:window-y="468"
     inkscape:window-maximized="1"
     inkscape:current-layer="layer1" />
  <defs
     id="defs2" />
  <g
     inkscape:label="Layer 1"
     inkscape:groupmode="layer"
     id="layer1">
    <path
       style="color:#000000;fill:#ffffff;stroke-width:29.5402;stroke-linecap:round;stroke-linejoin:round;-inkscape-stroke:none"
       d="m 24.693075,88.06145 a 7.8166138,7.8166138 0 0 0 -7.846607,7.846616 V 253.76325 c 0,10.10116 5.793268,18.58112 12.981511,24.86679 7.188242,6.28569 16.152321,10.73139 25.674556,10.73139 H 156.23921 c 9.33498,0 18.08271,-4.54235 25.15521,-11.19296 7.07221,-6.6506 12.63521,-15.90713 12.63521,-26.59765 V 95.908066 a 7.8166138,7.8166138 0 0 0 -7.84646,-7.846616 z m 7.788901,15.6355 H 178.39433 v 147.87387 c 0,5.05172 -2.99331,10.8303 -7.67366,15.23164 -4.68033,4.40132 -10.87786,6.92346 -14.48146,6.92346 H 55.502535 c -4.063566,0 -10.51295,-2.63853 -15.347058,-6.86577 -4.834072,-4.22715 -7.673501,-9.61227 -7.673501,-13.0969 z"
       id="path869" />
    <path
       style="color:#000000;fill:#ffffff;stroke-width:29.5402;stroke-linecap:round;stroke-linejoin:round;-inkscape-stroke:none"
       d="m 28.212514,41.616474 c -8.142603,0 -14.335066,5.254838 -16.674056,9.865941 -2.3389874,4.61113 -2.3079709,9.000529 -2.3079709,9.000529 a 7.8166182,7.8166182 0 0 0 0,0.115158 v 27.347716 c 0,5.889428 3.5703689,10.477358 6.5196269,12.635352 2.949297,2.15793 5.942626,2.8849 5.942626,2.8849 a 7.8158366,7.8158366 0 0 0 9.519786,-5.596474 7.8158366,7.8158366 0 0 0 -5.59647,-9.519792 c 0,0 -0.268827,-0.135914 -0.634527,-0.403816 -0.366287,-0.268808 -0.115228,0.364545 -0.115228,0 V 60.71366 60.5985 c 0.01137,-0.109294 0.109342,-1.155902 0.576929,-2.076971 0.491542,-0.968916 -0.08562,-1.269337 2.769381,-1.269337 H 181.62511 c 2.94811,0 4.38493,2.263665 4.38493,4.384847 v 24.982219 a 7.8166182,7.8166182 0 0 0 0,0.174259 c 0,0 -0.0886,0.827423 -0.29538,1.269339 -0.20679,0.441917 1.16979,0 -0.51993,0 a 7.8158366,7.8158366 0 0 0 -7.84643,7.8466 7.8158366,7.8158366 0 0 0 7.84643,7.788884 c 7.15317,5e-5 12.81041,-5.036644 14.71249,-9.231304 1.90238,-4.194598 1.73105,-8.019669 1.73105,-8.019669 V 61.638259 c 0,-10.386173 -8.51878,-20.020366 -20.02024,-20.020366 z"
       id="path1379" />
    <path
       style="color:#000000;fill:#ffffff;stroke-width:29.5402;stroke-linecap:round;stroke-linejoin:round;-inkscape-stroke:none"
       d="m 103.62066,6.999109 c -7.770994,0 -16.591736,2.449469 -23.943667,8.596657 -7.351954,6.147069 -12.693029,16.282532 -12.693029,29.251662 a 7.8158366,7.8158366 0 0 0 7.788888,7.846603 7.8158366,7.8158366 0 0 0 7.846598,-7.846603 c 3.5e-5,-8.988832 3.050203,-13.867741 7.09659,-17.250976 4.046359,-3.383262 9.629282,-4.96183 13.90462,-4.96183 4.57218,0 11.25586,1.491779 16.09709,5.077215 4.84119,3.585555 8.53894,8.797174 8.53894,19.616491 a 7.8158366,7.8158366 0 0 0 7.8466,7.788914 7.8158366,7.8158366 0 0 0 7.78903,-7.788914 c 0,-14.950743 -6.49855,-25.982513 -14.88558,-32.194127 -8.38693,-6.211644 -17.91185,-8.135092 -25.38608,-8.135092 z"
       id="path1381" />
    <path
       style="color:#000000;fill:#ffffff;stroke-width:29.5402;stroke-linecap:round;stroke-linejoin:round;-inkscape-stroke:none"
       d="m 105.40925,114.37066 a 7.8158323,7.8158323 0 0 0 -7.788927,7.84661 v 112.8526 a 7.8158323,7.8158323 0 0 0 7.788927,7.7889 7.8158323,7.8158323 0 0 0 7.84658,-7.7889 v -112.8526 a 7.8158323,7.8158323 0 0 0 -7.84658,-7.84661 z"
       id="path1496" />
    <path
       style="color:#000000;fill:#ffffff;stroke-width:29.5402;stroke-linecap:round;stroke-linejoin:round;-inkscape-stroke:none"
       d="m 146.77692,114.37066 a 7.8158323,7.8158323 0 0 0 -7.84647,7.84661 v 112.8526 a 7.8158323,7.8158323 0 0 0 7.84647,7.7889 7.8158323,7.8158323 0 0 0 7.78884,-7.7889 v -112.8526 a 7.8158323,7.8158323 0 0 0 -7.78884,-7.84661 z"
       id="path1496-3" />
    <path
       style="color:#000000;fill:#ffffff;stroke-width:29.5402;stroke-linecap:round;stroke-linejoin:round;-inkscape-stroke:none"
       d="m 64.099169,114.37066 a 7.8158323,7.8158323 0 0 0 -7.788922,7.84661 v 112.8526 a 7.8158323,7.8158323 0 0 0 7.788922,7.7889 7.8158323,7.8158323 0 0 0 7.846597,-7.7889 v -112.8526 a 7.8158323,7.8158323 0 0 0 -7.846597,-7.84661 z"
       id="path1496-0" />
  </g>
</svg>
